<?xml version="1.0" encoding="utf-8"?>
<!-- Generator: Adobe Illustrator 22.0.1, SVG Export Plug-In . SVG Version: 6.00 Build 0)  -->
<svg version="1.1" id="Capa_1" xmlns="http://www.w3.org/2000/svg" xmlns:xlink="http://www.w3.org/1999/xlink" x="0px" y="0px"
	 viewBox="0 0 110.464 73.021" style="enable-background:new 0 0 110.464 73.021;" xml:space="preserve">
<style type="text/css">
	.st0{fill:#002832;}
	.st1{fill:none;stroke:#00A0BE;stroke-width:2.0528;stroke-miterlimit:10;}
	.st2{fill:#00A0BE;}
	.st3{fill:#FFFFFF;}
</style>
<g>
	<g>
		<g>
			<path class="st0" d="M9.019,61.418c-0.203,0.187-0.438,0.28-0.704,0.28c-0.288,0-0.525-0.094-0.712-0.28
				c-0.188-0.187-0.28-0.418-0.28-0.696v-9.25c0-0.277,0.096-0.51,0.288-0.696s0.438-0.28,0.736-0.28
				c0.267,0,0.496,0.094,0.688,0.28c0.191,0.187,0.287,0.419,0.287,0.696v9.25C9.323,61,9.222,61.231,9.019,61.418z"/>
			<path class="st0" d="M20.798,50.751c0.16,0.171,0.24,0.384,0.24,0.641v9.33c0,0.278-0.094,0.51-0.28,0.696
				s-0.419,0.28-0.696,0.28c-0.149,0-0.296-0.024-0.44-0.072c-0.144-0.048-0.248-0.114-0.312-0.2l-5.874-7.458v6.834
				c0,0.256-0.083,0.47-0.248,0.641s-0.382,0.256-0.648,0.256c-0.256,0-0.464-0.085-0.624-0.256s-0.24-0.385-0.24-0.641v-9.33
				c0-0.277,0.094-0.51,0.28-0.696s0.419-0.28,0.696-0.28c0.16,0,0.317,0.032,0.473,0.096c0.154,0.064,0.269,0.149,0.344,0.256
				l5.825,7.427v-6.882c0-0.257,0.083-0.47,0.248-0.641c0.166-0.171,0.377-0.256,0.633-0.256S20.638,50.58,20.798,50.751z"/>
			<path class="st0" d="M32.513,50.751c0.16,0.171,0.24,0.384,0.24,0.641v9.33c0,0.278-0.093,0.51-0.279,0.696
				c-0.188,0.187-0.419,0.28-0.696,0.28c-0.15,0-0.297-0.024-0.44-0.072c-0.145-0.048-0.248-0.114-0.313-0.2l-5.873-7.458v6.834
				c0,0.256-0.083,0.47-0.248,0.641c-0.166,0.171-0.382,0.256-0.648,0.256c-0.256,0-0.464-0.085-0.624-0.256s-0.24-0.385-0.24-0.641
				v-9.33c0-0.277,0.093-0.51,0.28-0.696c0.187-0.187,0.418-0.28,0.696-0.28c0.16,0,0.317,0.032,0.472,0.096
				c0.154,0.064,0.27,0.149,0.344,0.256l5.826,7.427v-6.882c0-0.257,0.082-0.47,0.248-0.641c0.165-0.171,0.376-0.256,0.632-0.256
				C32.146,50.495,32.354,50.58,32.513,50.751z"/>
			<path class="st0" d="M44.709,59.001c-0.47,0.881-1.118,1.577-1.945,2.089c-0.826,0.513-1.758,0.769-2.792,0.769
				c-1.035,0-1.967-0.256-2.793-0.769c-0.827-0.512-1.473-1.208-1.937-2.089c-0.465-0.88-0.696-1.848-0.696-2.904
				s0.231-2.024,0.696-2.905c0.464-0.88,1.109-1.576,1.937-2.088c0.826-0.513,1.758-0.769,2.793-0.769
				c1.034,0,1.966,0.256,2.792,0.769c0.827,0.512,1.476,1.208,1.945,2.088c0.469,0.881,0.704,1.849,0.704,2.905
				S45.178,58.121,44.709,59.001z M42.901,54.152c-0.288-0.582-0.688-1.043-1.2-1.385c-0.513-0.341-1.089-0.512-1.729-0.512
				c-0.651,0-1.23,0.168-1.737,0.504s-0.901,0.798-1.184,1.385c-0.283,0.587-0.425,1.237-0.425,1.952s0.142,1.366,0.425,1.952
				c0.282,0.587,0.677,1.049,1.184,1.385s1.086,0.504,1.737,0.504c0.64,0,1.216-0.17,1.729-0.512c0.512-0.342,0.912-0.803,1.2-1.385
				c0.288-0.581,0.432-1.229,0.432-1.944S43.189,54.733,42.901,54.152z"/>
			<path class="st0" d="M55.904,50.735c0.198,0.182,0.297,0.399,0.297,0.656c0,0.139-0.032,0.282-0.097,0.432l-3.953,9.251
				c-0.096,0.203-0.229,0.357-0.399,0.464c-0.171,0.106-0.353,0.16-0.545,0.16c-0.182-0.011-0.35-0.066-0.504-0.168
				s-0.274-0.248-0.36-0.44l-3.953-9.282c-0.053-0.106-0.08-0.24-0.08-0.4c0-0.288,0.106-0.521,0.32-0.696s0.433-0.264,0.656-0.264
				c0.182,0,0.353,0.054,0.513,0.16c0.159,0.106,0.282,0.261,0.368,0.464l3.217,7.57l2.944-7.57
				c0.085-0.192,0.208-0.342,0.368-0.448s0.331-0.16,0.513-0.16C55.475,50.463,55.707,50.553,55.904,50.735z"/>
			<path class="st0" d="M66.156,60.834c0,0.277-0.091,0.504-0.272,0.681c-0.182,0.176-0.39,0.264-0.624,0.264
				c-0.192,0-0.366-0.059-0.521-0.176s-0.274-0.277-0.36-0.48l-0.832-1.937h-4.77l-0.832,1.952c-0.075,0.203-0.189,0.36-0.345,0.473
				c-0.154,0.112-0.322,0.168-0.504,0.168c-0.277,0-0.488-0.075-0.632-0.224c-0.145-0.149-0.216-0.353-0.216-0.608
				c0-0.097,0.016-0.197,0.048-0.305l3.985-9.57c0.085-0.214,0.213-0.379,0.384-0.496s0.362-0.165,0.576-0.145
				c0.192,0,0.37,0.057,0.536,0.168c0.165,0.112,0.286,0.27,0.36,0.473l3.938,9.379C66.128,60.589,66.156,60.717,66.156,60.834z
				 M59.561,57.344h3.201l-1.616-3.745L59.561,57.344z"/>
			<path class="st0" d="M75.726,51.855c0,0.224-0.08,0.442-0.24,0.656c-0.171,0.224-0.39,0.336-0.656,0.336
				c-0.182,0-0.363-0.048-0.544-0.144c-0.523-0.246-1.089-0.368-1.697-0.368c-0.746,0-1.397,0.157-1.952,0.472
				s-0.981,0.758-1.28,1.328c-0.299,0.571-0.448,1.225-0.448,1.961c0,1.259,0.339,2.214,1.017,2.865
				c0.677,0.65,1.565,0.976,2.664,0.976c0.651,0,1.217-0.122,1.697-0.368c0.191-0.085,0.362-0.128,0.512-0.128
				c0.277,0,0.513,0.118,0.704,0.353c0.16,0.202,0.24,0.421,0.24,0.656c0,0.171-0.043,0.325-0.128,0.464
				c-0.086,0.139-0.208,0.245-0.368,0.32c-0.832,0.416-1.718,0.624-2.657,0.624c-1.045,0-2.006-0.222-2.88-0.664
				c-0.875-0.442-1.574-1.097-2.097-1.961c-0.523-0.864-0.784-1.91-0.784-3.137c0-1.088,0.248-2.064,0.744-2.929
				s1.182-1.539,2.057-2.024c0.874-0.485,1.861-0.729,2.96-0.729c0.95,0,1.83,0.208,2.642,0.624
				C75.56,51.21,75.726,51.482,75.726,51.855z"/>
			<path class="st0" d="M79.071,61.418c-0.202,0.187-0.438,0.28-0.704,0.28c-0.288,0-0.525-0.094-0.712-0.28s-0.28-0.418-0.28-0.696
				v-9.25c0-0.277,0.096-0.51,0.288-0.696s0.438-0.28,0.736-0.28c0.267,0,0.496,0.094,0.688,0.28
				c0.191,0.187,0.288,0.419,0.288,0.696v9.25C79.375,61,79.274,61.231,79.071,61.418z"/>
			<path class="st0" d="M91.331,59.001c-0.47,0.881-1.117,1.577-1.944,2.089c-0.827,0.513-1.758,0.769-2.793,0.769
				s-1.966-0.256-2.793-0.769c-0.826-0.512-1.472-1.208-1.937-2.089c-0.464-0.88-0.695-1.848-0.695-2.904s0.231-2.024,0.695-2.905
				c0.465-0.88,1.11-1.576,1.937-2.088c0.827-0.513,1.758-0.769,2.793-0.769s1.966,0.256,2.793,0.769
				c0.827,0.512,1.475,1.208,1.944,2.088c0.47,0.881,0.705,1.849,0.705,2.905S91.8,58.121,91.331,59.001z M89.522,54.152
				c-0.288-0.582-0.688-1.043-1.2-1.385c-0.512-0.341-1.088-0.512-1.729-0.512c-0.65,0-1.229,0.168-1.736,0.504
				s-0.901,0.798-1.185,1.385c-0.282,0.587-0.424,1.237-0.424,1.952s0.142,1.366,0.424,1.952c0.283,0.587,0.678,1.049,1.185,1.385
				s1.086,0.504,1.736,0.504c0.641,0,1.217-0.17,1.729-0.512c0.513-0.342,0.912-0.803,1.2-1.385
				c0.288-0.581,0.433-1.229,0.433-1.944S89.81,54.733,89.522,54.152z M86.137,49.726c-0.122-0.106-0.184-0.245-0.184-0.416
				c0-0.149,0.074-0.293,0.224-0.432l1.377-1.217c0.277-0.234,0.538-0.352,0.784-0.352c0.202,0,0.395,0.074,0.576,0.224
				c0.181,0.149,0.271,0.336,0.271,0.561c0,0.159-0.051,0.317-0.151,0.472c-0.102,0.155-0.248,0.28-0.44,0.376l-1.601,0.849
				c-0.106,0.063-0.229,0.096-0.368,0.096C86.422,49.886,86.26,49.834,86.137,49.726z"/>
			<path class="st0" d="M102.95,50.751c0.16,0.171,0.24,0.384,0.24,0.641v9.33c0,0.278-0.094,0.51-0.28,0.696
				c-0.188,0.187-0.419,0.28-0.696,0.28c-0.149,0-0.296-0.024-0.44-0.072c-0.144-0.048-0.248-0.114-0.312-0.2l-5.874-7.458v6.834
				c0,0.256-0.083,0.47-0.248,0.641c-0.166,0.171-0.382,0.256-0.648,0.256c-0.256,0-0.464-0.085-0.624-0.256s-0.24-0.385-0.24-0.641
				v-9.33c0-0.277,0.094-0.51,0.28-0.696s0.419-0.28,0.696-0.28c0.16,0,0.317,0.032,0.472,0.096c0.155,0.064,0.27,0.149,0.345,0.256
				l5.825,7.427v-6.882c0-0.257,0.083-0.47,0.248-0.641s0.376-0.256,0.633-0.256C102.582,50.495,102.79,50.58,102.95,50.751z"/>
		</g>
		<g>
			<line class="st1" x1="60.824" y1="68.461" x2="53.632" y2="68.461"/>
			<line class="st1" x1="65.218" y1="68.461" x2="62.983" y2="68.461"/>
			<line class="st1" x1="69.269" y1="68.461" x2="67.034" y2="68.461"/>
			<line class="st1" x1="71.622" y1="68.461" x2="81.095" y2="68.461"/>
			<line class="st1" x1="49.949" y1="68.461" x2="57.315" y2="68.461"/>
			<line class="st1" x1="45.555" y1="68.461" x2="47.79" y2="68.461"/>
			<line class="st1" x1="41.503" y1="68.461" x2="43.738" y2="68.461"/>
			<line class="st1" x1="29.677" y1="68.461" x2="39.151" y2="68.461"/>
		</g>
	</g>
	<g>
		<path class="st2" d="M36.688,31.869c6.229,0,11.372-4.726,12.043-10.78L30.476,9.358c-3.533,2.121-5.909,5.978-5.909,10.389
			C24.567,26.43,30.005,31.869,36.688,31.869z"/>
		<path class="st2" d="M36.688,36.313c-9.135,0-16.566-7.431-16.566-16.566c0-5.263,2.475-9.95,6.312-12.986L26.43,6.758V4.561
			c-2.425,0.896-5.075,2.547-7.24,5.629c-6.608,9.408-1.131,19.647-1.131,19.647c3.942,7.211,11.596,12.102,20.393,12.102
			c1.134,0,3.558-0.188,6.391-1.227c0.913-0.335,3.827-2.286,4.754-2.993l4.392,5.731V24.468l-1.226-0.788
			C50.991,30.919,44.466,36.313,36.688,36.313z"/>
		<path class="st2" d="M30.472,9.355c-3.533,2.118-5.905,5.973-5.905,10.392c0,6.695,5.427,12.122,12.122,12.122
			c6.24,0,11.375-4.717,12.044-10.779L30.472,9.355z"/>
		<path class="st0" d="M32.086,10.392c-3.302,1.739-5.557,5.2-5.557,9.191c0,5.736,4.65,10.387,10.387,10.387
			c5.544,0,10.061-4.348,10.358-9.818L32.086,10.392z"/>
		<circle class="st3" cx="39.424" cy="18.372" r="1.809"/>
		<path class="st2" d="M73.776,31.869c-6.229,0-11.372-4.726-12.043-10.78L79.988,9.358c3.533,2.121,5.909,5.978,5.909,10.389
			C85.897,26.43,80.459,31.869,73.776,31.869z"/>
		<path class="st2" d="M73.776,36.313c9.135,0,16.566-7.431,16.566-16.566c0-5.263-2.475-9.95-6.312-12.986l0.004-0.003V4.561
			c2.425,0.896,5.075,2.547,7.24,5.629c6.608,9.408,1.131,19.647,1.131,19.647c-3.942,7.211-11.596,12.102-20.393,12.102
			c-1.134,0-3.558-0.188-6.391-1.227c-0.913-0.335-3.827-2.286-4.754-2.993l-4.392,5.731V24.468l1.226-0.788
			C59.473,30.919,65.998,36.313,73.776,36.313z"/>
		<path class="st2" d="M79.992,9.355c3.533,2.118,5.905,5.973,5.905,10.392c0,6.695-5.427,12.122-12.122,12.122
			c-6.24,0-11.375-4.717-12.043-10.779L79.992,9.355z"/>
		<path class="st0" d="M78.378,10.392c3.302,1.739,5.557,5.2,5.557,9.191c0,5.736-4.65,10.387-10.387,10.387
			c-5.544,0-10.061-4.348-10.358-9.818L78.378,10.392z"/>
		<circle class="st3" cx="71.04" cy="18.372" r="1.809"/>
	</g>
</g>
</svg>
