<?xml version="1.0" encoding="utf-8"?>
<!-- Generator: Adobe Illustrator 22.0.1, SVG Export Plug-In . SVG Version: 6.00 Build 0)  -->
<svg version="1.1" xmlns="http://www.w3.org/2000/svg" xmlns:xlink="http://www.w3.org/1999/xlink" x="0px" y="0px"
	 viewBox="0 0 221.667 206.333" style="enable-background:new 0 0 221.667 206.333;" xml:space="preserve">
<style type="text/css">
	.st0{display:none;}
	.st1{display:inline;}
	.st2{fill:#00A0BE;}
	.st3{fill:#FF8700;}
	.st4{fill:#002832;}
	.st5{fill:#FFFFFF;}
	.st6{fill:none;stroke:#002832;stroke-width:4.658;stroke-miterlimit:10;}
	.st7{fill:none;stroke:#002832;stroke-width:4.6597;stroke-linecap:round;stroke-linejoin:round;stroke-miterlimit:10;}
	.st8{fill:none;stroke:#FFFFFF;stroke-width:5.0815;stroke-linecap:round;stroke-linejoin:round;stroke-miterlimit:10;}
	.st9{fill:#00B558;}
	.st10{fill:#A2505F;}
	.st11{fill:#E83D62;}
</style>
<g id="raul" class="st0">
	<g class="st1">
		<g>
			<path class="st2" d="M72.732,150.239c13.482,0,24.613-10.228,26.064-23.33l-39.509-25.39c-7.646,4.59-12.79,12.938-12.79,22.485
				C46.497,138.469,58.267,150.239,72.732,150.239z"/>
			<path class="st3" d="M72.732,159.857c-19.77,0-35.853-16.083-35.853-35.853c0-11.39,5.356-21.534,13.662-28.106l-0.01-0.006
				v-4.755c-5.248,1.939-10.983,5.512-15.668,12.183c-14.301,20.362-2.449,42.52-2.449,42.52
				c8.532,15.605,25.096,26.191,44.135,26.191c2.455,0,7.701-0.407,13.831-2.656c1.976-0.725,8.282-4.948,10.29-6.477l9.506,12.404
				v-41.081l-2.654-1.706C103.685,148.182,89.564,159.857,72.732,159.857z"/>
			<path class="st3" d="M59.277,101.512c-7.646,4.584-12.78,12.928-12.78,22.491c0,14.489,11.746,26.235,26.235,26.235
				c13.506,0,24.618-10.209,26.065-23.329L59.277,101.512z"/>
			<path class="st4" d="M62.771,103.758c-7.147,3.763-12.027,11.254-12.027,19.892c0,12.415,10.064,22.479,22.479,22.479
				c11.999,0,21.774-9.409,22.417-21.248L62.771,103.758z"/>
			<circle class="st5" cx="78.653" cy="121.029" r="3.915"/>
			<path class="st2" d="M152.998,150.239c-13.482,0-24.613-10.228-26.064-23.33l39.509-25.39c7.646,4.59,12.79,12.938,12.79,22.485
				C179.233,138.469,167.463,150.239,152.998,150.239z"/>
			<path class="st3" d="M152.998,159.857c19.77,0,35.853-16.083,35.853-35.853c0-11.39-5.356-21.534-13.662-28.106l0.01-0.006
				v-4.755c5.248,1.939,10.983,5.512,15.668,12.183c14.301,20.362,2.449,42.52,2.449,42.52
				c-8.532,15.605-25.096,26.191-44.135,26.191c-2.455,0-7.701-0.407-13.831-2.656c-1.976-0.725-8.282-4.948-10.29-6.477
				l-9.506,12.404v-41.081l2.654-1.706C122.044,148.182,136.165,159.857,152.998,159.857z"/>
			<path class="st3" d="M166.453,101.512c7.646,4.584,12.78,12.928,12.78,22.491c0,14.489-11.746,26.235-26.235,26.235
				c-13.506,0-24.618-10.209-26.065-23.329L166.453,101.512z"/>
			<path class="st4" d="M162.958,103.758c7.147,3.763,12.027,11.254,12.027,19.892c0,12.415-10.064,22.479-22.479,22.479
				c-11.999,0-21.774-9.409-22.417-21.248L162.958,103.758z"/>
			<circle class="st5" cx="147.077" cy="121.029" r="3.915"/>
		</g>
		<path class="st6" d="M180.777,125.457c0,15.435-12.513,27.948-27.948,27.948s-27.948-12.513-27.948-27.948
			s12.513-27.948,27.948-27.948c11.848,0,21.974,7.372,26.041,17.78C180.101,118.44,180.777,121.869,180.777,125.457z"/>
		<path class="st7" d="M206.184,153.405v-20.326c0,0,2.649-20.326-12.595-20.326h-16.424"/>
		<path class="st8" d="M157.91,140.701c0,0,12.704,2.541,12.704-12.704"/>
		<path class="st4" d="M61.322,171.351c1.515,0.297,2.688,0.557,3.872,0.753c4.154,0.689,8.325,0.883,12.441-0.134
			c6.149-1.52,10.828-4.937,13.748-10.714c2.552-5.049,8.73-7.579,14.354-5.497c1.901,0.704,3.503,1.816,4.839,3.334
			c1.576,1.79,3.249,1.769,4.735-0.044c3.457-4.219,10.32-5.273,14.889-2.328c2.104,1.356,3.61,3.152,4.738,5.396
			c1.649,3.282,4.227,5.743,7.417,7.557c5.785,3.289,11.99,3.44,18.344,2.425c1.156-0.185,2.3-0.447,3.707-0.724
			c-0.476,0.735-0.805,1.31-1.196,1.838c-2.73,3.68-5.81,7.006-9.71,9.488c-5.326,3.389-11.068,4.508-17.27,3.19
			c-5.16-1.096-9.712-3.496-14.027-6.434c-1.059-0.721-2.211-1.305-3.258-2.042c-1.213-0.854-2.48-1.688-3.504-2.744
			c-1.852-1.911-3.098-1.894-4.991-0.017c-1.163,1.153-2.611,2.031-3.976,2.968c-1.601,1.099-3.238,2.149-4.882,3.184
			c-4.216,2.653-8.69,4.65-13.67,5.384c-4.624,0.682-9.006-0.075-13.169-2.137c-4.448-2.204-7.963-5.519-10.981-9.401
			C62.997,173.652,62.262,172.62,61.322,171.351z"/>
	</g>
</g>
<g id="ricky" class="st0">
	<g class="st1">
		<g>
			<path class="st2" d="M73.18,149.732c13.362,0,24.394-10.137,25.832-23.122l-39.158-25.164
				c-7.578,4.549-12.676,12.823-12.676,22.285C47.179,138.067,58.844,149.732,73.18,149.732z"/>
			<path class="st9" d="M73.18,159.265c-19.594,0-35.534-15.94-35.534-35.534c0-11.288,5.308-21.342,13.54-27.856l-0.01-0.006
				v-4.713c-5.201,1.922-10.885,5.463-15.529,12.075c-14.174,20.181-2.427,42.142-2.427,42.142
				c8.456,15.467,24.873,25.958,43.742,25.958c2.433,0,7.633-0.403,13.708-2.633c1.959-0.719,8.208-4.904,10.198-6.419l9.422,12.294
				v-40.716l-2.631-1.691C103.859,147.694,89.863,159.265,73.18,159.265z"/>
			<path class="st9" d="M59.845,101.44c-7.578,4.544-12.666,12.813-12.666,22.291c0,14.36,11.641,26.001,26.001,26.001
				c13.386,0,24.399-10.118,25.833-23.122L59.845,101.44z"/>
			<path class="st4" d="M63.309,103.665c-7.083,3.73-11.92,11.154-11.92,19.716c0,12.304,9.975,22.279,22.279,22.279
				c11.893,0,21.58-9.326,22.218-21.059L63.309,103.665z"/>
			<circle class="st5" cx="79.049" cy="120.783" r="3.88"/>
			<path class="st2" d="M152.733,149.732c-13.362,0-24.394-10.137-25.832-23.122l39.158-25.164
				c7.577,4.549,12.676,12.823,12.676,22.285C178.734,138.067,167.069,149.732,152.733,149.732z"/>
			<path class="st9" d="M152.733,159.265c19.594,0,35.534-15.94,35.534-35.534c0-11.288-5.308-21.342-13.54-27.856l0.01-0.006
				v-4.713c5.201,1.922,10.885,5.463,15.529,12.075c14.174,20.181,2.427,42.142,2.427,42.142
				c-8.456,15.467-24.873,25.958-43.742,25.958c-2.433,0-7.633-0.403-13.708-2.633c-1.959-0.719-8.208-4.904-10.198-6.419
				l-9.422,12.294v-40.716l2.631-1.691C122.055,147.694,136.05,159.265,152.733,159.265z"/>
			<path class="st9" d="M166.068,101.44c7.578,4.544,12.666,12.813,12.666,22.291c0,14.36-11.641,26.001-26.001,26.001
				c-13.386,0-24.399-10.118-25.833-23.122L166.068,101.44z"/>
			<path class="st4" d="M162.604,103.665c7.083,3.73,11.92,11.154,11.92,19.716c0,12.304-9.975,22.279-22.279,22.279
				c-11.893,0-21.58-9.326-22.218-21.059L162.604,103.665z"/>
			<circle class="st5" cx="146.864" cy="120.783" r="3.88"/>
		</g>
		<path class="st4" d="M85.674,188.239c0.466-3.318,0.739-6.455,1.383-9.515c0.639-3.038,1.808-3.806,4.714-2.628
			c4.92,1.994,9.701,4.346,14.46,6.708c1.573,0.78,2.741,1.579,4.569,0.312c1.568-1.087,3.632-0.864,5.252,0.252
			c1.178,0.811,2,0.536,3.137-0.019c5.024-2.455,10.029-4.982,15.195-7.106c3.674-1.511,4.789-0.687,5.323,3.269
			c0.819,6.069,0.786,12.135-0.74,18.109c-0.765,2.996-1.718,3.726-4.556,2.581c-5.302-2.14-10.46-4.646-15.622-7.117
			c-1.139-0.545-1.936-0.483-3.155-0.168c-1.653,0.428-3.523,0.001-5.3-0.024c-0.855-0.012-1.828-0.201-2.549,0.126
			c-4.718,2.146-9.373,4.432-14.072,6.621c-0.793,0.37-1.69,0.548-2.559,0.719c-2.338,0.459-3.46-0.046-3.963-2.373
			C86.488,194.732,86.148,191.4,85.674,188.239z"/>
	</g>
</g>
<g id="Christian">
	<g>
		<path class="st2" d="M72.962,150.476c13.369,0,24.406-10.142,25.846-23.134l-39.178-25.177
			c-7.581,4.551-12.682,12.829-12.682,22.297C46.947,138.805,58.618,150.476,72.962,150.476z"/>
		<path class="st2" d="M72.962,160.014c-19.604,0-35.552-15.948-35.552-35.552c0-11.294,5.311-21.353,13.547-27.87l-0.01-0.006
			V91.87c-5.204,1.923-10.891,5.466-15.537,12.081c-14.181,20.191-2.428,42.163-2.428,42.163
			c8.46,15.475,24.885,25.972,43.764,25.972c2.435,0,7.636-0.403,13.715-2.634c1.96-0.719,8.212-4.907,10.203-6.423l9.427,12.3
			v-40.736l-2.632-1.691C103.655,148.437,89.653,160.014,72.962,160.014z"/>
		<path class="st2" d="M59.62,102.159c-7.582,4.546-12.673,12.819-12.673,22.303c0,14.367,11.647,26.015,26.015,26.015
			c13.393,0,24.411-10.124,25.846-23.134L59.62,102.159z"/>
		<path class="st4" d="M63.085,104.386c-7.087,3.732-11.926,11.159-11.926,19.726c0,12.311,9.98,22.291,22.291,22.291
			c11.899,0,21.591-9.33,22.229-21.07L63.085,104.386z"/>
		<circle class="st5" cx="78.833" cy="121.512" r="3.882"/>
		<path class="st2" d="M152.554,150.476c-13.369,0-24.406-10.142-25.846-23.134l39.178-25.177
			c7.581,4.551,12.682,12.829,12.682,22.297C178.569,138.805,166.898,150.476,152.554,150.476z"/>
		<path class="st2" d="M152.554,160.014c19.604,0,35.552-15.948,35.552-35.552c0-11.294-5.311-21.353-13.547-27.87l0.01-0.006V91.87
			c5.204,1.923,10.891,5.466,15.537,12.081c14.181,20.191,2.428,42.163,2.428,42.163c-8.46,15.475-24.885,25.972-43.765,25.972
			c-2.435,0-7.636-0.403-13.715-2.634c-1.96-0.719-8.212-4.907-10.203-6.423l-9.427,12.3v-40.736l2.632-1.691
			C121.86,148.437,135.863,160.014,152.554,160.014z"/>
		<path class="st2" d="M165.896,102.159c7.582,4.546,12.673,12.819,12.673,22.303c0,14.367-11.647,26.015-26.015,26.015
			c-13.393,0-24.411-10.124-25.846-23.134L165.896,102.159z"/>
		<path class="st4" d="M162.431,104.386c7.087,3.732,11.926,11.159,11.926,19.726c0,12.311-9.98,22.291-22.291,22.291
			c-11.899,0-21.591-9.33-22.229-21.07L162.431,104.386z"/>
		<circle class="st5" cx="146.683" cy="121.512" r="3.882"/>
		<path class="st4" d="M94.423,11.832c17.446-2.668,34.867-2.501,52.199,1.05c1.534,0.314,3.002,0.94,4.522,1.335
			c0.929,0.242,0.814,0.707,0.569,1.406c-2.269,6.481-4.095,13.086-5.414,19.827c-1.991,10.182-2.884,20.453-2.279,30.82
			c0.244,4.184,0.766,8.351,1.125,12.528c0.077,0.89,0.448,1.171,1.336,1.203c4.752,0.169,9.504,0.369,14.251,0.647
			c0.973,0.057,1.954,0.421,2.875,0.785c0.723,0.286,0.999,1.032,0.619,1.692c-0.488,0.847-1.05,1.751-1.811,2.324
			c-5.994,4.519-12.943,7.008-20.008,9.22c-9.087,2.845-18.374,4.684-27.88,5.283c-12.149,0.766-24.217,0.228-36.011-3.05
			c-4.071-1.131-8.052-2.643-11.964-4.25c-1.114-0.457-1.849-1.851-2.727-2.843c-0.075-0.085,0.025-0.445,0.151-0.57
			c1.091-1.08,2.16-2.151,3.801-2.444c4.167-0.743,8.317-1.578,12.478-2.351c1.889-0.351,2.422-0.865,2.602-2.783
			c0.786-8.338,0.763-16.673-0.017-25.014c-1.204-12.874-4.19-25.334-8.564-37.48c-0.718-1.994-0.3-2.895,1.693-3.465
			c2.774-0.793,5.536-1.665,8.357-2.245C87.663,12.773,91.055,12.362,94.423,11.832z M129.89,88.215
			c2.476-0.885,4.662-1.642,6.829-2.449c1.967-0.733,2.227-1.297,2.028-3.395c-0.425-4.473-0.931-8.945-1.151-13.43
			c-0.79-16.054,0.635-31.925,4.245-47.593c0.302-1.313,0.636-2.619,0.914-3.937c0.131-0.619,0.161-1.221-0.791-1.206
			c-2.658,0.043-5.317,0.019-7.974,0.093c-1.71,0.047-2.298,0.622-2.517,2.343c-0.166,1.298-0.262,2.607-0.363,3.912
			c-0.802,10.414-1.926,20.817-2.291,31.247c-0.294,8.407,0.307,16.847,0.561,25.27C129.469,82.019,129.704,84.964,129.89,88.215z"
			/>
	</g>
</g>
<g id="Caro" class="st0">
	<g class="st1">
		<g>
			<g>
				<path class="st2" d="M73.197,150.541c13.273,0,24.23-10.069,25.659-22.967l-38.895-24.995
					c-7.527,4.518-12.591,12.737-12.591,22.136C47.37,138.954,58.957,150.541,73.197,150.541z"/>
				<g>
					<path class="st10" d="M73.197,160.01c-19.463,0-35.296-15.833-35.296-35.296c0-11.213,5.272-21.199,13.449-27.669l-0.01-0.006
						v-4.681c-5.166,1.909-10.812,5.426-15.425,11.994c-14.078,20.046-2.411,41.859-2.411,41.859
						c8.399,15.363,24.706,25.784,43.449,25.784c2.417,0,7.581-0.4,13.616-2.615c1.946-0.714,8.153-4.871,10.13-6.376l9.359,12.211
						v-40.442l-2.613-1.679C103.669,148.517,89.768,160.01,73.197,160.01z"/>
				</g>
				<g>
					<path class="st10" d="M59.951,102.573c-7.527,4.513-12.581,12.727-12.581,22.142c0,14.264,11.563,25.827,25.827,25.827
						c13.296,0,24.235-10.051,25.66-22.967L59.951,102.573z"/>
				</g>
				<path class="st4" d="M63.391,104.783c-7.036,3.705-11.84,11.079-11.84,19.583c0,12.222,9.908,22.13,22.13,22.13
					c11.813,0,21.436-9.263,22.068-20.918L63.391,104.783z"/>
				<circle class="st5" cx="79.026" cy="121.786" r="3.854"/>
				<path class="st2" d="M152.215,150.541c-13.273,0-24.23-10.069-25.659-22.967l38.895-24.995
					c7.527,4.518,12.591,12.737,12.591,22.136C178.042,138.954,166.455,150.541,152.215,150.541z"/>
				<g>
					<path class="st10" d="M152.215,160.01c19.463,0,35.296-15.833,35.296-35.296c0-11.213-5.272-21.199-13.449-27.669l0.01-0.006
						v-4.681c5.166,1.909,10.812,5.426,15.425,11.994c14.078,20.046,2.411,41.859,2.411,41.859
						c-8.399,15.363-24.706,25.784-43.449,25.784c-2.417,0-7.581-0.4-13.616-2.615c-1.946-0.714-8.153-4.871-10.13-6.376
						l-9.359,12.211v-40.442l2.613-1.679C121.743,148.517,135.644,160.01,152.215,160.01z"/>
				</g>
				<g>
					<path class="st10" d="M165.461,102.573c7.527,4.513,12.581,12.727,12.581,22.142c0,14.264-11.563,25.827-25.827,25.827
						c-13.296,0-24.235-10.051-25.66-22.967L165.461,102.573z"/>
				</g>
				<path class="st4" d="M162.021,104.783c7.036,3.705,11.84,11.079,11.84,19.583c0,12.222-9.908,22.13-22.13,22.13
					c-11.813,0-21.436-9.263-22.068-20.918L162.021,104.783z"/>
				<circle class="st5" cx="146.386" cy="121.786" r="3.854"/>
			</g>
			<g>
				<g>
					<path class="st4" d="M45.767,90.954c21.631,0.241,37.318,1.524,52.344,7.04c9.455,3.471,18.588,3.193,28.084-0.392
						c18.823-7.107,38.547-7.287,58.287-6.065c9.577,0.593,19.101,1.986,28.665,2.843c3.137,0.281,4.122,1.87,4.014,4.708
						c-0.176,4.609,0.795,8.98-3.682,13.041c-2.791,2.532-3.096,7.903-4.3,12.063c-1.961,6.772-3.521,13.666-5.656,20.379
						c-2.982,9.376-9.72,14.517-19.37,15.944c-10.832,1.602-21.576,1.241-32.182-1.599c-9.448-2.53-16.953-7.853-21.569-16.502
						c-3.38-6.333-6.027-13.061-8.942-19.638c-0.972-2.192-1.685-4.5-2.658-6.691c-1.4-3.153-4.039-4.246-7.337-4.123
						c-3.382,0.127-5.645,1.739-6.774,4.951c-2.039,5.805-3.834,11.713-6.2,17.382c-6.55,15.699-17.851,25.519-35.31,26.618
						c-7.595,0.478-15.319,0.45-22.875-0.361c-9.649-1.035-16.395-6.593-19.172-16.06c-2.448-8.345-4.094-16.93-6.662-25.233
						c-1.044-3.374-4.333-6.081-5.257-9.459c-1.097-4.011-1.135-8.453-0.755-12.628c0.096-1.054,3.46-2.356,5.439-2.604
						C26.405,93.005,38.943,91.708,45.767,90.954z M166.097,96.594c-8.416,1.428-17.343,2.566-26.084,4.53
						c-8.856,1.99-11.765,6.348-11.016,15.262c0.778,9.266,3.49,17.94,8.73,25.729c3.436,5.108,7.636,9.459,13.679,11.159
						c10.372,2.919,20.944,3.855,31.63,1.744c7.072-1.397,11.754-5.498,14.254-12.319c3.703-10.103,4.423-20.526,3.334-31.071
						c-0.601-5.818-3.604-10.241-9.869-11.287C182.784,99.011,174.776,97.902,166.097,96.594z M53.137,157.19
						c14.821-0.165,28.446-3.029,35.187-18.291c2.877-6.513,5.148-13.462,6.49-20.444c1.958-10.19-2.039-15.484-12.181-18.011
						c-15.434-3.845-30.921-3.699-46.401-0.35c-8.133,1.759-11.722,5.588-11.979,13.956c-0.201,6.553,0.076,13.237,1.161,19.691
						c3.117,18.536,8.53,22.959,27.273,23.448C52.836,157.194,52.987,157.19,53.137,157.19z"/>
				</g>
			</g>
			<g>
				<path class="st10" d="M59.041,100.369c0,0-28.902,12.387-33.031-14.451c0,0-1.895,37.366,45.502,22.812L59.041,100.369z"/>
			</g>
			<g>
				<path class="st10" d="M164.121,104.28c0,0,27.01,11.576,30.869-13.505c0,0,1.771,34.921-42.524,21.319L164.121,104.28z"/>
			</g>
		</g>
		<g>
			<g>
				<path class="st11" d="M187.537,86.349c-8.097-9.051-18.525-7.788-28.967-7.3c-0.269-3.658-0.581-7.155-0.732-10.66
					c-0.027-0.629,0.447-1.53,0.974-1.893c5.01-3.456,9.742-7.582,15.218-10.033c7.655-3.426,13.828,0.439,15.101,8.624
					C190.235,72.178,189.104,79.163,187.537,86.349z M185.431,79.499c1.076-6.507,1.853-12.779-1.137-18.713
					c-0.568-1.128-2.706-1.465-4.119-2.167c-0.467,1.18-1.351,2.368-1.328,3.539c0.086,4.377,0.382,8.757,0.809,13.115
					c0.089,0.909,0.9,1.988,1.692,2.529C182.446,78.552,183.841,78.869,185.431,79.499z"/>
			</g>
			<g>
				<path class="st11" d="M142.074,80.282c-10.23,0.957-20.57,1.358-27.405,11.353c-2.843-7.76-5.36-15.272-4.394-23.392
					c0.633-5.322,4.297-8.861,9.682-8.328c4.683,0.463,9.482,1.917,13.75,3.943C142.1,67.844,143.128,70.396,142.074,80.282z
					 M115.789,84.593c1.535-0.878,2.975-1.594,4.28-2.505c0.497-0.347,1-1.164,0.959-1.727c-0.356-4.916-0.762-9.832-1.345-14.725
					c-0.103-0.864-1.097-2.288-1.678-2.287c-1.136,0.002-2.496,0.589-3.334,1.386c-0.683,0.648-0.877,1.932-1.051,2.974
					C112.651,73.492,113.873,78.998,115.789,84.593z"/>
			</g>
			<g>
				<path class="st11" d="M156.157,73.878c0.079,1.073-0.011,2.191,0.267,3.209c0.906,3.319-0.884,5.077-3.534,6.302
					c-2.602,1.203-6.84,0.391-8.41-1.58c-0.356-0.447-0.487-1.147-0.546-1.747c-0.328-3.304-0.416-6.645-0.958-9.911
					c-0.369-2.225,0.411-3.465,2.233-4.406c3.186-1.646,6.275-1.275,9.158,0.619c0.66,0.433,1.084,1.526,1.229,2.38
					c0.285,1.69,0.299,3.427,0.425,5.144C156.067,73.885,156.112,73.882,156.157,73.878z M148.97,68.283
					c-1.39,1.296-3.142,2.198-3.114,3.042c0.077,2.34,2.254,1.895,3.672,1.558c1.199-0.285,2.222-1.312,3.323-2.01
					C151.716,70.115,150.58,69.358,148.97,68.283z"/>
			</g>
			<g>
				<path class="st11" d="M141.985,82.486c-8.164,5.139-16.329,10.277-26.058,12.813C117.231,87.42,130.657,80.841,141.985,82.486z"
					/>
			</g>
			<g>
				<path class="st11" d="M158.488,81.297c8.567-3.009,24.417-0.386,28.616,8.703C176.817,89.133,168.041,85.061,158.488,81.297z"/>
			</g>
		</g>
	</g>
</g>
</svg>
