<?xml version="1.0" encoding="utf-8"?>
<!-- Generator: Adobe Illustrator 22.0.1, SVG Export Plug-In . SVG Version: 6.00 Build 0)  -->
<svg version="1.1" xmlns="http://www.w3.org/2000/svg" xmlns:xlink="http://www.w3.org/1999/xlink" x="0px" y="0px"
	 viewBox="0 0 150 150" style="enable-background:new 0 0 150 150;" xml:space="preserve">
<style type="text/css">
	.st0{display:none;}
	.st1{display:inline;}
	.st2{fill:none;stroke:#FFFFFF;stroke-width:4.4845;stroke-linecap:round;stroke-linejoin:round;stroke-miterlimit:10;}
	.st3{fill:#00FF69;}
	.st4{fill:#FF1F5A;}
	.st5{fill:#FF9C57;}
</style>
<g id="tecnologia" class="st0">
	<g class="st1">
		<g>
			<g>
				<polyline class="st2" points="52.973,64.433 33.922,64.433 33.922,115.631 116.078,115.631 116.078,64.433 97.027,64.433 				
					"/>
			</g>
			<g>
				<line class="st2" x1="75" y1="94.497" x2="75" y2="30.797"/>
				<circle class="st2" cx="75.223" cy="24.843" r="5.656"/>
				<g>
					<polyline class="st2" points="87.204,81.4 87.204,45.085 99.111,45.085 					"/>
					<circle class="st2" cx="104.99" cy="45.382" r="5.656"/>
				</g>
				<g>
					<polyline class="st2" points="63.019,81.4 63.019,45.085 51.112,45.085 					"/>
					<circle class="st2" cx="45.233" cy="45.382" r="5.656"/>
				</g>
			</g>
		</g>
		<line class="st2" x1="75" y1="115.631" x2="75" y2="130.812"/>
		<line class="st2" x1="56.842" y1="130.812" x2="93.158" y2="130.812"/>
	</g>
</g>
<g id="factibilidad">
	<g>
		<g>
			<path class="st3" d="M127.16,79.244c0.388,0,0.776,0.148,1.07,0.443l3.556,3.57c0.586,0.589,0.584,1.55-0.004,2.136
				l-22.247,22.159c-0.294,0.292-0.68,0.439-1.066,0.439c-0.388,0-0.776-0.148-1.07-0.443L94.58,94.787
				c-0.479-0.481-0.477-1.265,0.003-1.744l3.963-3.947c0.24-0.239,0.555-0.358,0.87-0.358c0.317,0,0.634,0.121,0.874,0.361
				l8.142,8.174l17.661-17.591C126.388,79.39,126.774,79.244,127.16,79.244 M127.16,76.176c-1.221,0-2.368,0.473-3.231,1.333
				l-15.488,15.426l-5.977-6.001c-0.812-0.815-1.894-1.264-3.047-1.264c-1.147,0-2.224,0.445-3.035,1.252l-3.963,3.948
				c-1.68,1.674-1.686,4.402-0.012,6.083l12.827,12.77c0.855,0.859,2.007,1.337,3.235,1.337c1.221,0,2.368-0.473,3.231-1.333
				l22.247-22.159c1.789-1.782,1.795-4.686,0.013-6.475l-3.556-3.57C129.54,76.654,128.388,76.176,127.16,76.176L127.16,76.176z"/>
		</g>
		<g>
			<path class="st3" d="M63.766,37.196c0.255,0,0.509,0.097,0.702,0.29l2.332,2.342c0.385,0.386,0.383,1.017-0.003,1.401
				L52.205,55.765c-0.193,0.192-0.446,0.288-0.699,0.288c-0.255,0-0.509-0.097-0.702-0.29l-8.408-8.371
				c-0.314-0.315-0.313-0.83,0.002-1.144l2.6-2.589c0.157-0.157,0.364-0.235,0.571-0.235c0.208,0,0.416,0.079,0.573,0.237
				l5.341,5.362l11.585-11.539C63.26,37.292,63.513,37.196,63.766,37.196 M63.766,34.128c-1.082,0-2.099,0.42-2.864,1.182
				l-9.411,9.374l-3.176-3.188c-0.732-0.735-1.708-1.14-2.747-1.14c-1.033,0-2.005,0.401-2.736,1.129l-2.6,2.589
				c-1.515,1.509-1.519,3.968-0.011,5.483l8.417,8.38c0.757,0.76,1.779,1.184,2.867,1.184c1.082,0,2.099-0.42,2.864-1.182
				l14.593-14.535c0.767-0.764,1.191-1.783,1.193-2.868c0.002-1.085-0.418-2.105-1.182-2.872l-2.332-2.342
				C65.876,34.552,64.854,34.128,63.766,34.128L63.766,34.128z"/>
		</g>
		<g>
			<path class="st3" d="M99.258,41.689c0.96,0,1.921,0.365,2.648,1.095l8.796,8.831c1.451,1.456,1.446,3.835-0.011,5.285
				l-55.037,54.818c-0.726,0.723-1.682,1.085-2.637,1.085c-0.96,0-1.921-0.365-2.648-1.095L18.661,80.14
				c-1.184-1.189-1.18-3.13,0.009-4.314l9.804-9.765c0.593-0.59,1.373-0.886,2.153-0.885c0.784,0,1.568,0.298,2.161,0.894
				L52.93,86.292l43.691-43.518C97.348,42.051,98.303,41.689,99.258,41.689 M99.258,35.553c-2.633,0-5.107,1.02-6.967,2.873
				L52.947,77.614L37.135,61.739c-1.734-1.741-4.046-2.7-6.508-2.7c-2.449,0-4.752,0.95-6.483,2.674l-9.804,9.765
				c-3.589,3.575-3.6,9.403-0.026,12.991l31.728,31.587c1.845,1.853,4.329,2.883,6.977,2.883c2.633,0,5.107-1.02,6.967-2.873
				l55.037-54.818c1.866-1.858,2.896-4.335,2.901-6.976c0.005-2.64-1.015-5.122-2.873-6.987l-8.796-8.831
				C104.39,36.584,101.906,35.553,99.258,35.553L99.258,35.553z"/>
		</g>
	</g>
</g>
<g id="deseabilidad" class="st0">
	<g class="st1">
		<path class="st4" d="M103.639,22c2.745,0,5.659,0.332,8.723,1.099c0,0,24.429,4.311,25.866,38.799c0,0-1.437,43.11-63.228,66.102
			c-61.791-22.992-63.228-66.102-63.228-66.102c1.437-34.488,25.866-38.799,25.866-38.799C40.704,22.332,43.615,22,46.361,22
			C64.205,22.001,75,36.032,75,36.032S85.792,22,103.639,22 M103.639,14.364c-12.992,0-22.816,6.036-28.639,10.922
			c-5.824-4.886-15.648-10.922-28.638-10.922c-3.434,0-6.927,0.43-10.387,1.28c-1.736,0.359-8.675,2.102-15.7,8.123
			C13.388,29.67,4.999,41.022,4.143,61.58c-0.008,0.191-0.009,0.382-0.002,0.572c0.043,1.303,0.679,13.162,9.504,28.065
			c8.003,13.516,24.682,32.284,58.693,44.939c0.859,0.32,1.761,0.479,2.663,0.479s1.804-0.16,2.663-0.479
			c34.012-12.656,50.691-31.423,58.693-44.939c8.824-14.903,9.46-26.762,9.504-28.065c0.006-0.191,0.006-0.382-0.002-0.572
			c-0.857-20.558-9.245-31.91-16.132-37.812c-7.025-6.022-13.964-7.764-15.7-8.124C110.566,14.795,107.073,14.364,103.639,14.364
			L103.639,14.364z"/>
	</g>
</g>
<g id="viabilidad" class="st0">
	<g class="st1">
		<g>
			<path class="st5" d="M89.263,14.188c3.492,0,6.587,2.008,8.176,5.358c1.516,3.196,2.334,6.575,2.663,10.09
				c0.488,5.203-0.368,10.195-2.26,15.036c-1.074,2.746-2.157,5.488-3.348,8.187c-0.455,1.032-0.929,2.053-1.489,3.035
				c-0.509,0.894-0.277,1.479,0.692,1.802c0.591,0.197,1.206,0.233,1.825,0.233c0.02,0,0.04,0,0.06,0
				c3.991-0.014,7.981-0.021,11.972-0.041c5.147-0.026,10.294-0.074,15.44-0.09c0.009,0,0.019,0,0.028,0
				c4.215,0,7.595,2.866,8.299,7.022c0.343,2.023,0.294,4.033-0.345,6.001c-0.803,2.474-2.384,4.258-4.77,5.316
				c-0.026,0.012-0.055,0.019-0.08,0.033c-0.269,0.148-0.661,0.179-0.7,0.567c-0.044,0.436,0.359,0.561,0.64,0.735
				c1.064,0.659,2.033,1.432,2.893,2.339c1.416,1.495,2.359,3.222,2.445,5.319c0.067,1.633-0.146,3.234-0.829,4.74
				c-0.65,1.433-1.759,2.413-3.148,3.103c-0.753,0.374-1.547,0.643-2.348,0.892c-0.274,0.085-0.592,0.148-0.615,0.514
				c-0.019,0.308,0.238,0.436,0.458,0.576c0.735,0.467,1.434,0.986,1.995,1.657c2.216,2.651,2.677,5.648,1.567,8.863
				c-0.67,1.939-2.138,3.187-4.001,3.983c-0.319,0.136-0.658,0.231-0.964,0.39c-0.401,0.209-0.427,0.495-0.114,0.835
				c0.058,0.063,0.13,0.115,0.199,0.168c1.813,1.396,2.502,3.334,2.65,5.525c0.063,0.929-0.024,1.847-0.273,2.749
				c-0.814,2.948-3.249,4.924-6.298,5.098c-0.346,0.02-0.694,0.021-1.041,0.021c-6.801,0.001-13.602,0.001-20.403,0.001
				c-2.801,0-5.601,0-8.401,0c0,0.044,0,0.087,0,0.131c-5.414,0-10.828-0.013-16.242-0.013c-4.332,0-8.664,0.008-12.997,0.038
				c-0.016,0-0.032,0-0.048,0c-2.95,0-3.974-1.888-4.041-3.981c-0.008-0.26-0.008-0.521-0.008-0.781
				c0-12.841,0.009-25.681-0.003-38.522c-0.007-7.848,1.675-15.31,5.012-22.407c1.757-3.736,4.001-7.161,6.568-10.386
				c3.226-4.052,6.613-7.965,10.17-11.729c0.695-0.735,1.425-1.437,2.137-2.157c0.428-0.433,0.81-0.903,1.173-1.392
				c0.463-0.624,0.665-1.3,0.689-2.093c0.104-3.497,0.221-6.994,0.317-10.492c0.091-3.312,2.872-6.074,6.18-6.26
				C88.92,14.192,89.092,14.188,89.263,14.188 M89.263,7.063c-0.303,0-0.609,0.009-0.915,0.026
				c-7.044,0.396-12.711,6.184-12.902,13.178c-0.059,2.162-0.127,4.323-0.194,6.484c-0.03,0.946-0.059,1.892-0.088,2.838
				c-0.181,0.182-0.364,0.363-0.546,0.545c-0.499,0.495-1.014,1.008-1.544,1.568c-3.642,3.854-7.197,7.954-10.566,12.185
				c-3.118,3.916-5.552,7.773-7.441,11.792c-3.784,8.046-5.698,16.607-5.69,25.445c0.008,8.918,0.007,17.836,0.005,26.754
				L49.38,119.64v0.058c0,0.316,0.001,0.633,0.011,0.949c0.204,6.405,4.794,10.879,11.162,10.879c0.019,0,0.085,0,0.104,0
				c3.755-0.026,7.869-0.038,12.941-0.038c2.704,0,5.408,0.003,8.112,0.006c2.71,0.003,5.42,0.007,8.129,0.007
				c0.467,0,0.924-0.045,1.366-0.131h2.835l4.201,0l20.403-0.001c0.373,0,0.884,0,1.446-0.032
				c6.117-0.35,11.125-4.399,12.759-10.315c0.459-1.661,0.631-3.386,0.514-5.126c-0.094-1.383-0.328-2.623-0.663-3.733
				c1.297-1.491,2.065-3.047,2.518-4.361c1.398-4.047,1.276-8.069-0.298-11.688c0.873-0.977,1.589-2.079,2.143-3.3
				c1.087-2.395,1.578-5.079,1.46-7.975c-0.115-2.818-1.013-5.442-2.675-7.828c0.796-1.204,1.435-2.538,1.906-3.99
				c0.952-2.934,1.152-6.094,0.593-9.391c-1.293-7.628-7.594-12.955-15.323-12.955c-0.008,0-0.044,0-0.052,0
				c-3.055,0.009-6.113,0.03-9.171,0.051c-2.094,0.014-4.188,0.029-6.281,0.039c-1.477,0.007-2.955,0.013-4.432,0.018
				c0.479-1.191,0.941-2.368,1.39-3.516c2.373-6.069,3.287-12.224,2.718-18.295c-0.431-4.595-1.516-8.677-3.32-12.479
				C101.117,10.677,95.518,7.063,89.263,7.063L89.263,7.063z"/>
		</g>
		<g>
			<path class="st5" d="M21.573,71.408c0.025,0,0.05,0,0.075,0c3.319,0.043,6.639,0.054,9.959,0.054
				c3.951,0,7.902-0.016,11.854-0.016c0.249,0,0.498,0,0.747,0c0.006,0,0.013,0,0.019,0c0.065,0,0.13,0,0.195,0
				c0.364,0,0.731,0.005,1.081,0.077c1.448,0.297,2.524,1.551,2.658,3.055c0.028,0.316,0.019,0.636,0.019,0.954
				c0.001,17.788,0.001,35.575-0.001,53.363c0,0.519,0.019,1.037-0.136,1.548c-0.432,1.427-1.636,2.387-3.125,2.457
				c-0.156,0.007-0.312,0.009-0.468,0.009c-0.104,0-0.209-0.001-0.313-0.001c-3.133,0-6.267,0-9.4,0c-4.387,0-8.773,0-13.16-0.001
				c-0.118,0-0.237,0.001-0.355,0.001c-0.2,0-0.4-0.003-0.599-0.02c-1.573-0.131-2.868-1.41-3.013-2.982
				c-0.037-0.402-0.029-0.809-0.029-1.214c-0.001-8.85-0.001-17.701-0.001-26.551c0-8.879,0.057-17.759-0.035-26.638
				C17.518,72.941,19.139,71.408,21.573,71.408 M21.577,64.284c-0.002,0-0.009,0-0.012,0c-3.11,0-5.957,1.142-8.009,3.216
				c-2.054,2.076-3.168,4.945-3.135,8.08c0.066,6.385,0.055,12.899,0.044,19.199c-0.004,2.455-0.009,4.91-0.009,7.365l0,3.793
				l0.001,22.759l0,0.162c-0.001,0.433-0.003,1.027,0.06,1.704c0.464,5.041,4.465,9.006,9.514,9.428
				c0.471,0.039,0.884,0.044,1.192,0.044l0.21-0.001l0.145,0l13.16,0.001l9.4,0l0.134,0l0.179,0c0.268,0,0.536-0.004,0.804-0.017
				c4.522-0.214,8.293-3.162,9.608-7.511c0.448-1.482,0.444-2.734,0.441-3.483l0-0.127c0.002-17.788,0.001-35.576,0.001-53.364
				l0.001-0.148c0.002-0.337,0.005-0.848-0.047-1.436c-0.409-4.615-3.831-8.482-8.321-9.404c-0.955-0.196-1.773-0.223-2.515-0.223
				l-0.107,0l-0.088,0l-0.766,0c-1.981,0-3.961,0.004-5.942,0.008c-1.971,0.004-3.941,0.008-5.912,0.008
				c-3.882,0-7.017-0.017-9.867-0.054L21.577,64.284L21.577,64.284z"/>
		</g>
	</g>
</g>
</svg>
