<?xml version="1.0" encoding="utf-8"?>
<!-- Generator: Adobe Illustrator 22.0.1, SVG Export Plug-In . SVG Version: 6.00 Build 0)  -->
<svg version="1.1" id="Capa_1" xmlns="http://www.w3.org/2000/svg" xmlns:xlink="http://www.w3.org/1999/xlink" x="0px" y="0px"
	 viewBox="0 0 386.173 97.565" style="enable-background:new 0 0 386.173 97.565;" xml:space="preserve">
<style type="text/css">
	.st0{fill:#00FF69;}
	.st1{fill:#FFFFFF;}
</style>
<g>
	<g>
		<path class="st0" d="M143.979,71.629c0.144,0.137,0.215,0.314,0.215,0.535c-0.001,0.22-0.073,0.394-0.217,0.521
			c-0.145,0.126-0.327,0.189-0.548,0.189l-5.262-0.011l-0.031,15.583c0,0.221-0.077,0.402-0.229,0.546
			c-0.152,0.145-0.34,0.216-0.56,0.215c-0.237,0-0.428-0.072-0.571-0.217c-0.145-0.145-0.216-0.326-0.215-0.547l0.03-15.583
			l-5.262-0.011c-0.221-0.001-0.402-0.068-0.546-0.204c-0.145-0.136-0.216-0.314-0.216-0.534c0.001-0.204,0.073-0.372,0.218-0.509
			c0.144-0.135,0.326-0.202,0.547-0.202l12.1,0.024C143.653,71.426,143.834,71.494,143.979,71.629z"/>
		<path class="st0" d="M154.748,82.519c-0.152,0.144-0.331,0.215-0.534,0.215l-9.609-0.02c-0.002,1.018,0.204,1.929,0.618,2.734
			c0.413,0.806,1.005,1.442,1.775,1.909c0.77,0.469,1.68,0.703,2.731,0.705c0.813,0.002,1.542-0.166,2.188-0.504
			c0.645-0.338,1.162-0.769,1.553-1.293c0.187-0.153,0.365-0.229,0.534-0.229c0.17,0.001,0.322,0.068,0.457,0.205
			c0.136,0.136,0.203,0.288,0.203,0.458c-0.001,0.187-0.086,0.364-0.256,0.533c-0.544,0.659-1.227,1.201-2.05,1.622
			c-0.822,0.422-1.691,0.633-2.606,0.631c-1.305-0.003-2.457-0.284-3.456-0.846s-1.776-1.347-2.333-2.356
			c-0.558-1.009-0.835-2.175-0.832-3.497c0.003-1.389,0.28-2.604,0.833-3.646c0.553-1.042,1.287-1.837,2.204-2.386
			c0.916-0.549,1.891-0.822,2.925-0.82c1.017,0.002,1.97,0.241,2.858,0.718s1.611,1.172,2.169,2.089
			c0.558,0.916,0.843,2.001,0.857,3.255C154.977,82.202,154.901,82.376,154.748,82.519z M146.355,78.422
			c-0.841,0.676-1.381,1.649-1.62,2.92l8.668,0.017l0.001-0.203c-0.084-0.763-0.337-1.428-0.759-1.997
			c-0.423-0.568-0.952-1.002-1.587-1.3c-0.635-0.297-1.291-0.447-1.969-0.448C148.106,77.409,147.195,77.746,146.355,78.422z
			 M148.585,75.084c-0.085-0.094-0.127-0.199-0.126-0.318c0-0.102,0.042-0.22,0.127-0.355l1.556-2.412
			c0.204-0.372,0.492-0.558,0.865-0.557c0.254,0,0.458,0.068,0.609,0.204c0.153,0.137,0.22,0.331,0.203,0.585
			c-0.001,0.187-0.086,0.382-0.256,0.584l-1.91,2.005c-0.272,0.271-0.535,0.405-0.789,0.405
			C148.763,75.223,148.669,75.177,148.585,75.084z"/>
		<path class="st0" d="M165.984,76.237c0.686,0.179,1.236,0.422,1.651,0.728c0.414,0.306,0.621,0.637,0.62,0.993
			c0,0.187-0.064,0.355-0.191,0.508s-0.284,0.228-0.471,0.228c-0.17,0-0.31-0.034-0.419-0.103c-0.11-0.067-0.233-0.169-0.368-0.306
			c-0.221-0.221-0.432-0.382-0.635-0.484c-0.254-0.119-0.589-0.217-1.003-0.294c-0.416-0.077-0.86-0.116-1.335-0.117
			c-0.933-0.002-1.784,0.234-2.557,0.706c-0.771,0.474-1.379,1.116-1.821,1.929s-0.664,1.711-0.666,2.693
			c-0.002,1.017,0.208,1.933,0.63,2.747s1.01,1.455,1.763,1.922c0.753,0.468,1.613,0.703,2.579,0.705
			c0.61,0.001,1.098-0.049,1.462-0.149c0.365-0.102,0.726-0.244,1.082-0.431c0.118-0.067,0.322-0.22,0.61-0.456
			c0.136-0.118,0.255-0.207,0.356-0.267c0.102-0.059,0.212-0.088,0.331-0.088c0.203,0,0.364,0.064,0.482,0.191
			c0.118,0.128,0.177,0.293,0.177,0.496c-0.001,0.288-0.204,0.597-0.611,0.927c-0.408,0.329-0.968,0.612-1.68,0.849
			c-0.713,0.235-1.501,0.353-2.365,0.351c-1.237-0.002-2.338-0.297-3.303-0.884c-0.965-0.586-1.713-1.396-2.245-2.432
			s-0.796-2.196-0.794-3.484c0.003-1.237,0.276-2.368,0.82-3.393c0.544-1.023,1.309-1.84,2.293-2.448
			c0.984-0.607,2.111-0.911,3.383-0.908C164.556,75.967,165.298,76.057,165.984,76.237z"/>
		<path class="st0" d="M180.801,77.384c0.735,0.926,1.103,2.15,1.099,3.676l-0.015,7.474c0,0.221-0.077,0.402-0.229,0.546
			c-0.153,0.145-0.331,0.216-0.534,0.215c-0.221,0-0.403-0.072-0.546-0.217c-0.145-0.144-0.216-0.326-0.216-0.547l0.015-7.397
			c0.002-1.102-0.271-1.996-0.82-2.684c-0.55-0.688-1.4-1.032-2.553-1.034c-0.729-0.002-1.42,0.167-2.073,0.504
			c-0.653,0.338-1.184,0.79-1.592,1.357c-0.407,0.566-0.611,1.181-0.613,1.841l-0.015,7.397c0,0.221-0.073,0.403-0.217,0.546
			c-0.145,0.145-0.327,0.216-0.547,0.216c-0.221-0.001-0.403-0.073-0.547-0.218c-0.144-0.144-0.215-0.326-0.215-0.547l0.022-11.388
			c0.001-0.221,0.073-0.402,0.217-0.547c0.145-0.144,0.327-0.215,0.548-0.215c0.22,0.001,0.402,0.073,0.546,0.217
			c0.144,0.146,0.216,0.327,0.215,0.548l-0.002,1.397c0.459-0.728,1.116-1.332,1.973-1.813c0.857-0.481,1.734-0.721,2.633-0.719
			C178.911,75.996,180.066,76.46,180.801,77.384z"/>
		<path class="st0" d="M185.829,74.141c-0.187-0.161-0.279-0.396-0.278-0.7v-0.254c0.001-0.306,0.099-0.537,0.294-0.698
			s0.462-0.241,0.802-0.24c0.677,0.002,1.016,0.315,1.015,0.942l-0.001,0.255c0,0.305-0.09,0.538-0.268,0.698
			c-0.179,0.161-0.438,0.24-0.775,0.24C186.277,74.383,186.014,74.302,185.829,74.141z M187.133,89.09
			c-0.145,0.145-0.327,0.216-0.547,0.216c-0.221-0.001-0.402-0.073-0.546-0.218c-0.145-0.144-0.216-0.326-0.215-0.547l0.022-11.693
			c0.001-0.22,0.073-0.402,0.218-0.546c0.144-0.144,0.326-0.216,0.547-0.215c0.22,0,0.402,0.072,0.546,0.217
			s0.215,0.327,0.215,0.547l-0.023,11.693C187.35,88.765,187.277,88.948,187.133,89.09z"/>
		<path class="st0" d="M199.182,76.302c0.686,0.18,1.236,0.423,1.651,0.729c0.414,0.306,0.621,0.637,0.62,0.992
			c0,0.187-0.064,0.356-0.191,0.508c-0.127,0.152-0.284,0.229-0.471,0.229c-0.17-0.001-0.31-0.035-0.419-0.103
			c-0.11-0.068-0.233-0.17-0.368-0.307c-0.221-0.22-0.432-0.381-0.635-0.483c-0.254-0.119-0.589-0.218-1.003-0.294
			c-0.416-0.078-0.86-0.117-1.335-0.118c-0.933-0.002-1.784,0.234-2.557,0.707c-0.771,0.474-1.379,1.116-1.821,1.929
			s-0.664,1.711-0.666,2.693c-0.002,1.017,0.208,1.933,0.63,2.746c0.422,0.814,1.01,1.455,1.763,1.923s1.613,0.702,2.579,0.704
			c0.61,0.001,1.098-0.049,1.462-0.149c0.365-0.101,0.726-0.244,1.082-0.43c0.118-0.067,0.322-0.22,0.61-0.456
			c0.136-0.119,0.255-0.207,0.356-0.267c0.102-0.059,0.212-0.089,0.331-0.088c0.203,0,0.364,0.063,0.482,0.191
			c0.118,0.127,0.177,0.292,0.177,0.495c-0.001,0.289-0.204,0.598-0.611,0.928c-0.408,0.329-0.968,0.612-1.68,0.848
			c-0.713,0.235-1.501,0.354-2.365,0.352c-1.237-0.003-2.338-0.297-3.303-0.884s-1.713-1.397-2.245-2.432
			c-0.532-1.035-0.796-2.197-0.794-3.485c0.003-1.236,0.276-2.367,0.82-3.392s1.309-1.84,2.293-2.448s2.111-0.911,3.383-0.908
			C197.754,76.033,198.497,76.124,199.182,76.302z"/>
		<path class="st0" d="M215.501,76.602c0.144,0.153,0.215,0.34,0.215,0.56l-0.022,11.439c-0.001,0.221-0.073,0.402-0.217,0.546
			c-0.146,0.145-0.327,0.216-0.548,0.215c-0.22,0-0.402-0.072-0.546-0.217s-0.215-0.326-0.215-0.547l0.004-1.703
			c-0.426,0.762-1.063,1.404-1.911,1.928c-0.849,0.524-1.772,0.785-2.772,0.783c-1.135-0.003-2.156-0.301-3.062-0.896
			c-0.905-0.595-1.615-1.409-2.13-2.444c-0.516-1.034-0.771-2.196-0.769-3.484c0.003-1.287,0.267-2.443,0.795-3.468
			c0.527-1.024,1.245-1.824,2.152-2.398c0.908-0.574,1.913-0.86,3.015-0.858c1.017,0.002,1.948,0.25,2.795,0.743
			c0.846,0.493,1.48,1.138,1.902,1.936l0.003-1.576c0.001-0.22,0.073-0.406,0.218-0.559c0.144-0.152,0.326-0.229,0.547-0.228
			C215.175,76.373,215.357,76.45,215.501,76.602z M212.022,87.488c0.704-0.465,1.257-1.107,1.656-1.929
			c0.4-0.82,0.602-1.739,0.604-2.757c0.002-0.982-0.196-1.881-0.593-2.695s-0.946-1.455-1.648-1.923
			c-0.702-0.467-1.494-0.702-2.375-0.704s-1.674,0.226-2.378,0.682c-0.705,0.456-1.257,1.087-1.656,1.891
			c-0.4,0.805-0.601,1.715-0.604,2.731c-0.002,1.018,0.191,1.938,0.58,2.76c0.388,0.823,0.933,1.468,1.636,1.935
			c0.702,0.468,1.502,0.702,2.4,0.704C210.525,88.184,211.318,87.953,212.022,87.488z"/>
	</g>
	<g>
		<path class="st1" d="M125.396,27.061l23.64,0.047l-0.01,5.196l-16.338-0.032l-0.015,7.443l14.792,0.029l-0.01,5.196l-14.793-0.029
			l-0.024,12.545l-7.303-0.015L125.396,27.061z"/>
		<path class="st1" d="M155.13,57.384c-1.045-0.392-1.776-1.095-2.196-2.111c-0.419-1.014-0.627-2.536-0.622-4.565
			c0.003-1.81,0.232-3.229,0.687-4.259s1.189-1.769,2.205-2.219c1.015-0.45,2.412-0.674,4.19-0.67l7.678,0.015l0.003-1.545
			c0.002-0.967-0.13-1.686-0.394-2.154c-0.265-0.469-0.748-0.797-1.449-0.986c-0.702-0.189-1.755-0.285-3.159-0.288
			c-1.936-0.003-4.588,0.179-7.959,0.546l0.008-4.307c2.466-0.307,5.354-0.458,8.661-0.451c2.902,0.006,5.141,0.229,6.717,0.669
			c1.574,0.44,2.705,1.192,3.39,2.253c0.684,1.063,1.024,2.608,1.021,4.637l-0.031,15.588l-6.694-0.014l0.004-2.06
			c-0.532,0.904-1.251,1.542-2.156,1.915c-0.907,0.403-2.623,0.604-5.151,0.599C157.758,57.975,156.175,57.776,155.13,57.384z
			 M165.506,53.59c0.438-0.062,0.742-0.154,0.914-0.279c0.171-0.124,0.32-0.327,0.446-0.608c0.124-0.217,0.188-0.545,0.188-0.982
			l0.009-4.4l-4.681-0.009c-1.062-0.002-1.811,0.066-2.248,0.207c-0.438,0.139-0.734,0.419-0.891,0.84
			c-0.157,0.421-0.236,1.163-0.239,2.223c-0.002,1.03,0.074,1.748,0.23,2.154c0.155,0.407,0.459,0.672,0.911,0.798
			c0.452,0.126,1.256,0.189,2.411,0.192C163.93,53.727,164.914,53.682,165.506,53.59z"/>
		<path class="st1" d="M187.967,57.964c-0.687-0.048-1.528-0.136-2.526-0.262c-0.999-0.127-1.818-0.347-2.457-0.661
			c-0.64-0.313-1.302-0.782-1.986-1.408c-1.278-1.063-1.913-2.875-1.908-5.434l0.015-7.537c0.004-2.06,0.476-3.774,1.415-5.146
			c0.344-0.498,0.852-0.958,1.523-1.378s1.351-0.754,2.038-1.002c0.563-0.186,1.312-0.341,2.248-0.464
			c0.937-0.122,1.764-0.199,2.481-0.229l2.481,0.005c1.747,0.004,4.04,0.289,6.88,0.856l-0.009,4.494
			c-3.214-0.755-5.679-1.135-7.395-1.138c-3.152-0.006-4.73,1.052-4.734,3.174l-0.017,8.332c-0.005,2.404,1.726,3.608,5.189,3.615
			c1.685,0.003,4.104-0.334,7.258-1.015l-0.01,4.494c-2.841,0.524-5.4,0.785-7.679,0.781
			C189.589,58.038,188.654,58.013,187.967,57.964z"/>
		<path class="st1" d="M210.578,57.939c-0.78-0.095-1.561-0.284-2.34-0.566c-0.873-0.283-1.583-0.674-2.127-1.175
			c-0.546-0.5-0.989-1.188-1.331-2.062c-0.372-0.906-0.558-1.952-0.555-3.138l0.023-11.843l-4.588-0.009l0.009-4.213l4.587,0.009
			l0.014-6.554l6.834,0.014l-0.013,6.554l6.226,0.013l-0.008,4.213l-6.227-0.013l-0.021,10.673c-0.003,1.093,0.09,1.913,0.275,2.458
			c0.187,0.547,0.544,0.938,1.074,1.172c0.53,0.235,1.342,0.354,2.435,0.356c0.437,0,1.247-0.075,2.434-0.229l-0.008,4.26
			c-1.468,0.153-2.732,0.229-3.793,0.227C212.325,58.083,211.357,58.034,210.578,57.939z"/>
		<path class="st1" d="M221.296,34.976l6.834,0.014l-0.045,22.657l-6.834-0.014L221.296,34.976z M221.313,26.784l6.834,0.014
			l-0.011,5.524l-6.835-0.014L221.313,26.784z"/>
		<path class="st1" d="M238.783,57.246c-1.669-0.596-2.86-1.511-3.575-2.745c-0.716-1.234-1.071-2.865-1.067-4.895l0.05-24.716
			l6.834,0.014l-0.024,12.358c0.407-1.029,1.157-1.737,2.251-2.125c1.093-0.387,2.794-0.579,5.104-0.575
			c1.966,0.004,3.55,0.164,4.75,0.478c1.201,0.314,2.112,0.816,2.736,1.504c0.591,0.688,0.995,1.446,1.212,2.272
			c0.217,0.828,0.324,1.96,0.321,3.395l-0.015,7.443c-0.007,3.059-0.931,5.241-2.775,6.548c-1.844,1.307-4.841,1.957-8.991,1.948
			C242.72,58.144,240.451,57.842,238.783,57.246z M248.738,53.615c0.686-0.186,1.155-0.513,1.406-0.98
			c0.25-0.468,0.376-1.169,0.378-2.105l0.017-8.379c0.003-1.03-0.105-1.771-0.323-2.224c-0.218-0.453-0.653-0.758-1.309-0.916
			c-0.654-0.157-1.731-0.238-3.229-0.241c-1.28-0.002-2.255,0.105-2.926,0.322c-0.672,0.217-1.133,0.56-1.383,1.028
			c-0.252,0.467-0.377,1.138-0.379,2.012l-0.017,8.379c-0.002,0.936,0.113,1.639,0.347,2.107c0.233,0.469,0.685,0.797,1.355,0.986
			c0.671,0.189,1.677,0.284,3.02,0.287C247.036,53.892,248.05,53.801,248.738,53.615z"/>
		<path class="st1" d="M262.77,35.059l6.835,0.014l-0.045,22.657l-6.835-0.014L262.77,35.059z M262.787,26.866l6.835,0.014
			l-0.012,5.524l-6.834-0.014L262.787,26.866z"/>
		<path class="st1" d="M275.851,24.973l6.835,0.014l-0.065,32.768l-6.835-0.014L275.851,24.973z"/>
		<path class="st1" d="M288.891,35.11l6.835,0.014l-0.045,22.657l-6.835-0.014L288.891,35.11z M288.908,26.918l6.835,0.014
			l-0.012,5.524l-6.834-0.014L288.908,26.918z"/>
		<path class="st1" d="M304.482,57.681c-1.279-0.392-2.168-1.135-2.664-2.229c-0.498-1.093-0.743-2.794-0.739-5.104l0.018-8.848
			c0.006-2.497,0.719-4.258,2.141-5.285c1.422-1.027,3.725-1.538,6.908-1.531c1.497,0.003,2.675,0.092,3.533,0.264
			c0.858,0.174,1.551,0.472,2.082,0.894c0.529,0.422,1.074,1.04,1.634,1.852l0.025-12.639l6.835,0.014l-0.065,32.768l-6.601-0.013
			l0.006-2.575c-0.564,0.905-1.073,1.536-1.525,1.893c-0.454,0.358-1.086,0.63-1.897,0.815c-0.843,0.216-2.092,0.324-3.746,0.32
			C307.741,58.273,305.76,58.074,304.482,57.681z M315.537,53.795c0.718-0.154,1.202-0.442,1.453-0.863
			c0.25-0.421,0.376-1.053,0.378-1.896l0.019-9.128c0.001-0.78-0.13-1.381-0.395-1.803s-0.732-0.727-1.402-0.916
			c-0.671-0.189-1.678-0.285-3.019-0.287c-1.437-0.003-2.466,0.082-3.091,0.251c-0.625,0.171-1.038,0.466-1.242,0.887
			s-0.306,1.116-0.308,2.083l-0.018,8.66c-0.002,0.875,0.098,1.538,0.301,1.99c0.201,0.453,0.599,0.774,1.191,0.962
			c0.592,0.188,1.513,0.284,2.762,0.286C313.695,54.025,314.818,53.95,315.537,53.795z"/>
		<path class="st1" d="M331.703,57.735c-1.046-0.392-1.777-1.095-2.196-2.111c-0.42-1.015-0.627-2.537-0.623-4.565
			c0.004-1.81,0.232-3.229,0.688-4.258c0.454-1.029,1.188-1.769,2.204-2.219c1.015-0.45,2.412-0.674,4.191-0.67l7.677,0.015
			l0.003-1.545c0.002-0.967-0.129-1.685-0.394-2.154s-0.747-0.797-1.449-0.986c-0.701-0.189-1.755-0.285-3.159-0.288
			c-1.936-0.004-4.588,0.178-7.959,0.546l0.009-4.307c2.466-0.307,5.353-0.458,8.661-0.451c2.902,0.006,5.141,0.229,6.716,0.668
			c1.575,0.441,2.705,1.192,3.39,2.254c0.684,1.063,1.024,2.608,1.021,4.636L350.45,57.89l-6.693-0.013l0.004-2.06
			c-0.533,0.904-1.252,1.542-2.157,1.915c-0.906,0.404-2.623,0.604-5.15,0.599C334.33,58.326,332.747,58.128,331.703,57.735z
			 M342.079,53.941c0.437-0.061,0.741-0.154,0.913-0.279c0.172-0.124,0.321-0.327,0.446-0.608c0.125-0.218,0.188-0.545,0.189-0.983
			l0.009-4.4l-4.682-0.009c-1.061-0.002-1.811,0.067-2.247,0.207c-0.438,0.139-0.734,0.419-0.892,0.841
			c-0.157,0.421-0.236,1.163-0.238,2.223c-0.002,1.03,0.074,1.748,0.23,2.154c0.154,0.406,0.458,0.672,0.91,0.797
			c0.452,0.126,1.256,0.189,2.411,0.192C340.502,54.078,341.486,54.034,342.079,53.941z"/>
		<path class="st1" d="M359.064,57.79c-1.279-0.392-2.168-1.135-2.664-2.229c-0.498-1.093-0.743-2.794-0.739-5.104l0.018-8.848
			c0.006-2.497,0.719-4.258,2.141-5.285s3.725-1.538,6.908-1.531c1.497,0.003,2.675,0.092,3.533,0.265
			c0.858,0.173,1.551,0.471,2.082,0.894c0.529,0.422,1.074,1.04,1.634,1.853l0.025-12.639l6.835,0.014l-0.065,32.768l-6.601-0.013
			l0.006-2.575c-0.564,0.905-1.073,1.535-1.525,1.893c-0.454,0.358-1.086,0.629-1.897,0.815c-0.843,0.216-2.092,0.323-3.746,0.32
			C362.323,58.382,360.342,58.183,359.064,57.79z M370.119,53.903c0.718-0.154,1.202-0.442,1.453-0.863
			c0.25-0.421,0.376-1.053,0.378-1.895l0.019-9.128c0.001-0.78-0.13-1.381-0.395-1.803s-0.732-0.727-1.402-0.915
			c-0.671-0.189-1.678-0.285-3.019-0.288c-1.437-0.003-2.466,0.082-3.091,0.252s-1.038,0.465-1.242,0.887
			c-0.204,0.421-0.306,1.115-0.308,2.082l-0.018,8.66c-0.002,0.875,0.098,1.538,0.301,1.991c0.201,0.453,0.599,0.773,1.191,0.961
			c0.592,0.189,1.513,0.284,2.762,0.287C368.277,54.133,369.4,54.058,370.119,53.903z"/>
	</g>
	<g>
		<path class="st0" d="M93.666,41.675c0.29,0,0.58,0.11,0.8,0.331l2.657,2.668c0.438,0.44,0.437,1.158-0.003,1.597L80.494,62.829
			c-0.219,0.219-0.508,0.328-0.797,0.328c-0.29,0-0.58-0.11-0.8-0.331l-9.579-9.536c-0.358-0.359-0.356-0.946,0.003-1.303
			l2.962-2.95c0.179-0.178,0.415-0.268,0.65-0.267c0.237,0,0.474,0.09,0.653,0.27l6.085,6.109l13.198-13.146
			C93.089,41.784,93.377,41.675,93.666,41.675 M93.666,39.382c-0.912,0-1.77,0.354-2.415,0.996L79.677,51.906l-4.467-4.484
			c-0.607-0.609-1.416-0.945-2.277-0.945c-0.857,0-1.662,0.332-2.268,0.936l-2.962,2.95c-1.256,1.251-1.26,3.29-0.009,4.546
			l9.586,9.543c0.639,0.642,1.5,0.999,2.417,0.999c0.912,0,1.77-0.354,2.415-0.996l16.626-16.559
			c0.647-0.644,1.004-1.503,1.006-2.417c0.002-0.915-0.352-1.775-0.996-2.421l-2.657-2.668
			C95.444,39.739,94.583,39.382,93.666,39.382L93.666,39.382z"/>
		<path class="st0" d="M46.291,10.252c0.19,0,0.381,0.072,0.525,0.217l1.743,1.75c0.287,0.289,0.286,0.76-0.002,1.047L37.651,24.128
			c-0.144,0.143-0.333,0.215-0.523,0.215c-0.19,0-0.381-0.072-0.525-0.217l-6.283-6.255c-0.235-0.236-0.234-0.62,0.002-0.855
			l1.943-1.935c0.117-0.117,0.272-0.175,0.427-0.175c0.155,0,0.311,0.059,0.428,0.177l3.991,4.007l8.658-8.623
			C45.913,10.324,46.102,10.252,46.291,10.252 M46.291,7.959c-0.808,0-1.569,0.314-2.141,0.883l-7.033,7.005l-2.373-2.383
			c-0.547-0.549-1.276-0.852-2.053-0.852c-0.772,0-1.498,0.3-2.045,0.844l-1.943,1.935c-1.132,1.127-1.135,2.965-0.008,4.097
			l6.29,6.262c0.566,0.568,1.329,0.885,2.142,0.885c0.808,0,1.569-0.314,2.141-0.883l10.906-10.862
			c1.185-1.18,1.189-3.105,0.009-4.29l-1.743-1.75C47.868,8.276,47.104,7.959,46.291,7.959L46.291,7.959z"/>
		<path class="st0" d="M72.815,13.61c0.718,0,1.435,0.273,1.979,0.819l6.574,6.6c1.084,1.088,1.08,2.866-0.008,3.95L40.23,65.943
			c-0.543,0.541-1.257,0.811-1.971,0.811c-0.718,0-1.435-0.273-1.979-0.819L12.584,42.344c-0.885-0.888-0.882-2.339,0.006-3.224
			l7.327-7.298c0.443-0.441,1.026-0.662,1.609-0.662c0.586,0,1.172,0.223,1.615,0.668l15.052,15.112L70.844,14.42
			C71.387,13.88,72.101,13.61,72.815,13.61 M72.815,9.024c-1.967,0-3.816,0.763-5.207,2.147L38.206,40.456L26.39,28.593
			c-1.296-1.301-3.023-2.018-4.864-2.018c-1.83,0-3.551,0.71-4.845,1.998l-7.327,7.298c-2.682,2.671-2.691,7.027-0.019,9.709
			l23.71,23.605c1.379,1.384,3.235,2.154,5.214,2.154c1.967,0,3.817-0.763,5.207-2.147l41.129-40.966
			c1.394-1.389,2.164-3.24,2.168-5.213c0.004-1.973-0.759-3.827-2.147-5.221l-6.574-6.6C76.65,9.794,74.793,9.024,72.815,9.024
			L72.815,9.024z"/>
	</g>
</g>
</svg>
