<?xml version="1.0" encoding="utf-8"?>
<!-- Generator: Adobe Illustrator 22.0.1, SVG Export Plug-In . SVG Version: 6.00 Build 0)  -->
<svg version="1.1" id="Capa_1" xmlns="http://www.w3.org/2000/svg" xmlns:xlink="http://www.w3.org/1999/xlink" x="0px" y="0px"
	 viewBox="0 0 374.289 577.772" style="enable-background:new 0 0 374.289 577.772;" xml:space="preserve">
<style type="text/css">
	.st0{fill:#00A2C1;stroke:#002832;stroke-width:5.7835;stroke-miterlimit:10;}
	.st1{fill:#FFFFFF;stroke:#002832;stroke-width:5.7835;stroke-miterlimit:10;}
	.st2{fill:#00A1BE;}
	.st3{fill:#0095B0;}
	.st4{fill:#008AA2;}
	.st5{fill:#007F93;}
	.st6{fill:#007284;}
	.st7{fill:#006475;}
	.st8{fill:#005765;}
	.st9{fill:#FFFFFF;}
	.st10{fill:none;stroke:#002832;stroke-width:1.4459;stroke-linecap:round;stroke-linejoin:round;stroke-miterlimit:10;}
	.st11{fill:none;}
	.st12{fill:none;stroke:#002832;stroke-width:1.4459;stroke-miterlimit:10;}
	.st13{fill:#002832;}
	.st14{fill:none;stroke:#002832;stroke-width:2.8918;stroke-linecap:round;stroke-linejoin:round;stroke-miterlimit:10;}
	.st15{fill:#00A2C1;}
	.st16{fill:none;stroke:#FFFFFF;stroke-width:1.4459;stroke-linecap:round;stroke-linejoin:round;stroke-miterlimit:10;}
</style>
<g>
	<g>
		<g>
			<path class="st0" d="M93.684,389.715c0,0,17.683,57.925,41.764,60.455c0,0,3.781-38.044-3.448-56.117
				C131.999,394.052,100.259,388.195,93.684,389.715z"/>
			<path class="st1" d="M115.544,352.956l-41.741-12.398C70.55,374.05,91.11,393.092,91.11,393.092s23.93,25.54,44.338,17.586
				C135.447,410.678,143.518,380.931,115.544,352.956z"/>
			<path class="st0" d="M96.692,305.653l-50.533-25.287c0,51.566,24.062,72.394,24.062,72.394
				c27.246,27.246,53.162,9.745,53.162,9.745S117.894,327.86,96.692,305.653"/>
			<path class="st1" d="M71.637,252.196L27.535,242.6c0,0-1.075,28.797,15.73,51.928c0,0,16.729,30.526,57.43,17.834
				c0,0-7.238-30.679-23.271-51.486L71.637,252.196z"/>
			<path class="st0" d="M77.424,257.983c-35.417,0-49.89-15.383-49.89-15.383c-32.894-51.69,8.796-74.549,8.796-74.549
				S60.442,184.806,77.424,257.983z"/>
			<polygon class="st2" points="186.234,243.237 59.62,195.338 66.573,176.27 186.234,221.273 			"/>
			<polygon class="st3" points="186.234,265.2 70.854,221.382 77.694,202.175 186.234,243.237 			"/>
			<polygon class="st4" points="186.234,287.164 83.14,247.723 90.09,228.687 186.234,265.2 			"/>
			<polygon class="st5" points="186.234,309.128 94.226,273.686 101.636,254.8 186.234,287.164 			"/>
			<polygon class="st6" points="186.234,331.091 105.505,300.209 113.217,281.002 186.234,309.128 			"/>
			<polygon class="st7" points="186.234,353.055 116.81,326.104 123.557,307.08 186.234,331.091 			"/>
			<polygon class="st8" points="186.234,375.018 128.325,352.213 135.324,333.291 186.234,353.055 			"/>
			<path class="st2" d="M132.67,113.13c-27.113,0-49.169-22.057-49.169-49.169c0-15.62,7.345-29.532,18.736-38.545l-0.013-0.009
				v-6.521c-7.197,2.659-15.062,7.559-21.488,16.708c-19.612,27.925-3.358,58.312-3.358,58.312
				c11.7,21.402,34.417,35.919,60.527,35.919c3.367,0,10.561-0.558,18.969-3.643c2.71-0.995,11.358-6.786,14.111-8.882
				l13.037,17.011V77.973l-3.64-2.339C175.12,97.119,155.754,113.13,132.67,113.13z"/>
			<path class="st9" d="M164.088,65.164c-0.882,16.236-14.287,29.14-30.743,29.14c-17.026,0-30.828-13.802-30.828-30.828
				c0-11.847,6.692-22.119,16.493-27.281l-4.792-3.08c-10.486,6.287-17.526,17.729-17.526,30.845
				c0,19.87,16.108,35.979,35.979,35.979c18.522,0,33.761-14.001,35.746-31.994L164.088,65.164z"/>
			<circle class="st9" cx="140.79" cy="59.881" r="5.369"/>
			<path class="st10" d="M36.33,168.051c0,0-31.327,31.534,0,80.774"/>
			<path class="st10" d="M37.043,165.454c0,0-21.736,46.161,9.115,87.689"/>
			<path class="st10" d="M37.043,165.454c0,0-2.64,58.463,15.998,89.726"/>
			<path class="st10" d="M37.043,165.454c0,0,13.264,55.393,24.447,91.391"/>
			<path class="st10" d="M69.471,257.704c-7.98-45.984-32.428-92.25-32.428-92.25"/>
			<path class="st10" d="M27.535,242.6c0,0,12.348,51.798,44.128,71.806"/>
			<path class="st10" d="M29.369,244.234c0,0,27.692,61.73,55.401,70.171"/>
			<path class="st10" d="M27.535,244.234c0,0,37.263,54.079,69.237,69.237"/>
			<path class="st10" d="M32.275,246.369c0,0,58.442,60.249,68.42,63.844"/>
			<line class="st10" x1="29.369" y1="244.234" x2="94.991" y2="294.206"/>
			<path class="st10" d="M27.535,244.234c0,0,42.777,27.371,59.162,31.303"/>
			<path class="st10" d="M27.535,244.234c0,0,26.661,17.828,53.454,21.652"/>
			<path class="st10" d="M49.599,302.459c0,0,13.721,39.363,44.085,64.395"/>
			<path class="st10" d="M49.599,302.459c0,0,38.905,57.215,55.24,64.395"/>
			<path class="st10" d="M49.599,302.459c0,0,55.652,61.956,68.665,61.956"/>
			<path class="st10" d="M47.759,302.459c0,0,65.226,52.07,73.89,52.07"/>
			<path class="st10" d="M47.759,302.459c0,0,49.116,32.316,67.281,32.316"/>
			<path class="st10" d="M47.759,302.459c0,0,26.237,19.866,61.143,19.866"/>
			<path class="st10" d="M73.698,358.117c0,0,23.074,38.246,47.951,53.826"/>
			<path class="st10" d="M73.698,355.98c0,0,51.943,51.801,61.749,54.698"/>
			<path class="st10" d="M73.698,358.117c0,0,52.393,38.246,62.697,38.246"/>
			<path class="st10" d="M73.698,358.117c0,0,32.657,22.66,59.577,22.66"/>
			<path class="st10" d="M74.129,359.044c0,0,12.493,14.206,55.063,12.199"/>
			<path class="st10" d="M98.953,399.989c0,0,18.616,26.419,36.495,28.226"/>
			<path class="st10" d="M99.459,401.748c0,0,22.526,18.513,36.932,18.513"/>
			<path class="st9" d="M60.8,179.121l-18.781-7.417l-0.475,1.203c3.412,3.934,8.214,10.465,13.542,20.681L60.8,179.121z"/>
			<path class="st9" d="M72.195,205.239l-14.096-5.567c2.716,5.746,5.517,12.451,8.304,20.231L72.195,205.239z"/>
			<path class="st9" d="M76.172,250.137l7.418-18.781l-15.314-6.048c2.445,7.289,4.856,15.434,7.165,24.54L76.172,250.137z"/>
			<path class="st9" d="M75.46,257.93l1.964,2.947c3.618,4.696,6.773,9.896,9.513,15.13l0.63,0.249l7.417-18.781l-18.781-7.418
				l-0.429,1.085c0.556,2.225,1.106,4.503,1.649,6.841C76.745,257.983,76.124,257.941,75.46,257.93z"/>
			<path class="st9" d="M98.962,302.373l-0.635,1.606c0.648,2.082,1.172,3.886,1.55,5.255c4.535,5.413,8.236,11.356,11.271,17.251
				l6.626-16.776l-18.781-7.417l7.386-18.7l-18.781-7.418l-0.247,0.625c4.712,9.151,8.112,18.311,10.299,25.055L98.962,302.373z"/>
			<path class="st9" d="M121.752,354.609l7.418-18.781l-16.627-6.567c4.674,9.712,7.525,19.027,9.117,25.311L121.752,354.609z"/>
			<path class="st9" d="M133.191,380.616l7.373-18.67l-18.781-7.417l-0.081,0.206c0.891,3.533,1.382,6.085,1.576,7.169
				C128.074,368.357,131.184,374.716,133.191,380.616z"/>
			<path class="st11" d="M42.019,171.704"/>
			<line class="st10" x1="66.573" y1="176.27" x2="186.234" y2="221.273"/>
			<line class="st10" x1="59.62" y1="195.338" x2="186.234" y2="243.237"/>
			<line class="st10" x1="70.854" y1="221.382" x2="186.234" y2="265.2"/>
			<line class="st10" x1="83.14" y1="247.723" x2="186.234" y2="287.164"/>
			<line class="st10" x1="94.226" y1="273.686" x2="186.234" y2="309.128"/>
			<line class="st10" x1="105.505" y1="300.209" x2="186.234" y2="331.091"/>
			<line class="st10" x1="116.81" y1="326.104" x2="186.234" y2="353.055"/>
			<line class="st12" x1="128.325" y1="352.213" x2="186.234" y2="375.018"/>
			<polyline class="st10" points="37.043,165.454 66.573,176.27 59.62,195.338 77.694,202.175 70.854,221.382 90.069,228.743 
				83.14,247.723 101.636,254.8 94.226,273.686 113.217,281.002 105.505,300.209 123.557,307.08 116.81,326.104 135.324,333.291 
				128.325,352.213 146.322,359.273 135.178,387.686 			"/>
			<polygon class="st9" points="148.6,364.771 181.4,377.24 181.4,383.329 141.488,383.329 			"/>
			<polygon class="st13" points="135.447,513.341 186.231,558.886 186.231,456.952 			"/>
			<g>
				<polygon class="st9" points="136.893,391.451 184.373,456.854 136.893,509.575 				"/>
				<path class="st13" d="M138.339,395.904l44.176,60.852l-44.176,49.053V395.904 M135.447,386.998v126.343l50.784-56.389
					L135.447,386.998L135.447,386.998z"/>
			</g>
			<polygon class="st13" points="145.869,422.292 145.869,501.769 157.279,489.099 157.279,436.742 			"/>
			<line class="st10" x1="166.536" y1="445.144" x2="166.536" y2="478.399"/>
			<polygon class="st13" points="177.314,452.388 177.314,466.853 186.231,456.952 			"/>
			<line class="st14" x1="186.231" y1="456.952" x2="160.706" y2="534.065"/>
			<polygon class="st15" points="143.951,513.341 175.325,476.22 156.76,524.185 			"/>
			<polygon class="st15" points="181.536,484.349 167.15,533.505 180.535,545.594 			"/>
			<path class="st10" d="M96.772,397.989c0,0,16.304,35.106,38.406,41.612"/>
			<path class="st9" d="M127.623,150.863c-10.299-0.253-19.726-2.635-27.869-5.859l4.021,22.726L127.623,150.863z"/>
			<path class="st9" d="M90.271,140.644c-7.748-4.075-13.692-8.459-17.279-11.395l-3.328,22.875L90.271,140.644z"/>
			<path class="st9" d="M183.156,154.562l-14.741-14.741c-9.881,5.833-19.511,9.013-28.646,10.337l8.597,33.852L183.156,154.562z"/>
			<polygon class="st2" points="44.977,154.763 59.726,160.178 63.795,132.208 			"/>
			<polygon class="st2" points="67.747,163.123 95.985,173.491 91.782,149.733 			"/>
			<polygon class="st2" points="105.64,177.036 140.934,189.995 132.77,157.846 			"/>
			<polygon class="st2" points="186.234,163.324 150.551,193.526 186.234,206.628 			"/>
			<polyline class="st16" points="68.276,127.291 63.795,160.178 94.949,143.738 100.695,173.921 134.951,151.052 146.322,191.392 
				186.82,157.846 			"/>
			<path class="st15" d="M186.234,387.686h-51.056c0,0,0.94,46.614,51.053,69.266c0,0,0-71.539,0-69.266"/>
			<path class="st10" d="M179.714,445.144c0,0-31.809-11.085-37.111-52.052h37.111v45.063c0,0-25.235-9.94-30.604-40.003h24.821
				v28.918c0,0-16.651-11.085-16.651-24.098h9.903v8.032"/>
			<path class="st14" d="M186.234,387.686h-51.056c0,0,0.94,46.614,51.053,69.266c0,0,0-71.539,0-69.266"/>
			<path class="st10" d="M102.309,18.886c-7.197,2.659-15.062,7.559-21.488,16.708c-19.612,27.925-3.358,58.312-3.358,58.312
				c11.7,21.402,34.417,35.919,60.527,35.919c3.367,0,10.561-0.558,18.969-3.643c2.71-0.995,11.358-6.786,14.111-8.882
				l13.037,17.011"/>
			<polygon class="st13" points="195.592,452.388 195.592,466.853 186.675,456.952 			"/>
		</g>
	</g>
	<g>
		<g>
			<path class="st0" d="M280.605,389.715c0,0-17.683,57.925-41.764,60.455c0,0-3.781-38.044,3.448-56.117
				C242.289,394.052,274.03,388.195,280.605,389.715z"/>
			<path class="st1" d="M258.745,352.956l41.741-12.398c3.253,33.492-17.307,52.534-17.307,52.534s-23.93,25.54-44.338,17.586
				C238.841,410.678,230.77,380.931,258.745,352.956z"/>
			<path class="st0" d="M277.597,305.653l50.533-25.287c0,51.566-24.062,72.394-24.062,72.394
				c-27.246,27.246-53.162,9.745-53.162,9.745S256.395,327.86,277.597,305.653"/>
			<path class="st1" d="M302.651,252.196l44.103-9.596c0,0,1.075,28.797-15.73,51.928c0,0-16.729,30.526-57.43,17.834
				c0,0,7.238-30.679,23.271-51.486L302.651,252.196z"/>
			<path class="st0" d="M296.864,257.983c35.417,0,49.89-15.383,49.89-15.383c32.894-51.69-8.796-74.549-8.796-74.549
				S313.846,184.806,296.864,257.983z"/>
			<polygon class="st2" points="188.055,243.237 314.668,195.338 307.715,176.27 188.055,221.273 			"/>
			<polygon class="st3" points="188.055,265.2 303.434,221.382 296.595,202.175 188.055,243.237 			"/>
			<polygon class="st4" points="188.055,287.164 291.148,247.723 284.199,228.687 188.055,265.2 			"/>
			<polygon class="st5" points="188.055,309.128 280.063,273.686 272.652,254.8 188.055,287.164 			"/>
			<polygon class="st6" points="188.055,331.091 268.784,300.209 261.072,281.002 188.055,309.128 			"/>
			<polygon class="st7" points="188.055,353.055 257.479,326.104 250.731,307.08 188.055,331.091 			"/>
			<polygon class="st8" points="188.055,375.018 245.964,352.213 238.965,333.291 188.055,353.055 			"/>
			<path class="st2" d="M241.618,113.13c27.113,0,49.169-22.057,49.169-49.169c0-15.62-7.345-29.532-18.736-38.545l0.013-0.009
				v-6.521c7.197,2.659,15.062,7.559,21.488,16.708c19.612,27.925,3.358,58.312,3.358,58.312
				c-11.7,21.402-34.417,35.919-60.527,35.919c-3.367,0-10.561-0.558-18.969-3.643c-2.71-0.995-11.358-6.786-14.111-8.882
				l-13.037,17.011V77.973l3.64-2.339C199.168,97.119,218.534,113.13,241.618,113.13z"/>
			<g>
				<path class="st9" d="M260.07,33.115l-4.792,3.08c9.802,5.161,16.493,15.433,16.493,27.281c0,17.026-13.802,30.828-30.828,30.828
					c-16.456,0-29.861-12.904-30.743-29.14l-4.328,2.781c1.985,17.993,17.224,31.994,35.746,31.994
					c19.87,0,35.979-16.108,35.979-35.979C277.597,50.845,270.556,39.403,260.07,33.115z"/>
			</g>
			<circle class="st9" cx="233.499" cy="59.881" r="5.369"/>
			<path class="st10" d="M337.958,168.051c0,0,31.327,31.534,0,80.774"/>
			<path class="st10" d="M337.246,165.454c0,0,21.736,46.161-9.115,87.689"/>
			<path class="st10" d="M337.246,165.454c0,0,2.64,58.463-15.998,89.726"/>
			<path class="st10" d="M337.246,165.454c0,0-13.264,55.393-24.447,91.391"/>
			<path class="st10" d="M304.818,257.704c7.98-45.984,32.428-92.25,32.428-92.25"/>
			<path class="st10" d="M346.754,242.6c0,0-12.348,51.798-44.128,71.806"/>
			<path class="st10" d="M344.92,244.234c0,0-27.692,61.73-55.401,70.171"/>
			<path class="st10" d="M346.754,244.234c0,0-37.263,54.079-69.237,69.237"/>
			<path class="st10" d="M342.014,246.369c0,0-58.442,60.249-68.42,63.844"/>
			<line class="st10" x1="344.92" y1="244.234" x2="279.298" y2="294.206"/>
			<path class="st10" d="M346.754,244.234c0,0-42.777,27.371-59.162,31.303"/>
			<path class="st10" d="M346.754,244.234c0,0-26.661,17.828-53.454,21.652"/>
			<path class="st10" d="M324.69,302.459c0,0-13.721,39.363-44.085,64.395"/>
			<path class="st10" d="M324.69,302.459c0,0-38.905,57.215-55.24,64.395"/>
			<path class="st10" d="M324.69,302.459c0,0-55.652,61.956-68.665,61.956"/>
			<path class="st10" d="M326.53,302.459c0,0-65.226,52.07-73.89,52.07"/>
			<path class="st10" d="M326.53,302.459c0,0-49.116,32.316-67.281,32.316"/>
			<path class="st10" d="M326.53,302.459c0,0-26.237,19.866-61.143,19.866"/>
			<path class="st10" d="M300.591,358.117c0,0-23.074,38.246-47.951,53.826"/>
			<path class="st10" d="M300.591,355.98c0,0-51.943,51.801-61.749,54.698"/>
			<path class="st10" d="M300.591,358.117c0,0-52.393,38.246-62.697,38.246"/>
			<path class="st10" d="M300.591,358.117c0,0-32.657,22.66-59.577,22.66"/>
			<path class="st10" d="M300.16,359.044c0,0-12.492,14.206-55.063,12.199"/>
			<path class="st10" d="M275.336,399.989c0,0-18.616,26.419-36.495,28.226"/>
			<path class="st10" d="M274.83,401.748c0,0-22.526,18.513-36.932,18.513"/>
			<path class="st9" d="M313.489,179.121l18.781-7.417l0.475,1.203c-3.412,3.934-8.214,10.465-13.542,20.681L313.489,179.121z"/>
			<path class="st9" d="M302.094,205.239l14.096-5.567c-2.716,5.746-5.517,12.451-8.304,20.231L302.094,205.239z"/>
			<path class="st9" d="M298.117,250.137l-7.418-18.781l15.314-6.048c-2.444,7.289-4.856,15.434-7.165,24.54L298.117,250.137z"/>
			<path class="st9" d="M298.829,257.93l-1.964,2.947c-3.618,4.696-6.773,9.896-9.513,15.13l-0.63,0.249l-7.417-18.781l18.781-7.418
				l0.429,1.085c-0.556,2.225-1.106,4.503-1.649,6.841C297.544,257.983,298.164,257.941,298.829,257.93z"/>
			<path class="st9" d="M275.327,302.373l0.635,1.606c-0.648,2.082-1.172,3.886-1.55,5.255c-4.535,5.413-8.236,11.356-11.271,17.251
				l-6.626-16.776l18.781-7.417l-7.386-18.7l18.781-7.418l0.247,0.625c-4.712,9.151-8.112,18.311-10.299,25.055L275.327,302.373z"/>
			<path class="st9" d="M252.537,354.609l-7.418-18.781l16.627-6.567c-4.674,9.712-7.525,19.027-9.117,25.311L252.537,354.609z"/>
			<path class="st9" d="M241.098,380.616l-7.373-18.67l18.781-7.417l0.081,0.206c-0.891,3.533-1.382,6.085-1.576,7.169
				C246.215,368.357,243.105,374.716,241.098,380.616z"/>
			<path class="st11" d="M332.27,171.704"/>
			<line class="st10" x1="307.715" y1="176.27" x2="188.055" y2="221.273"/>
			<line class="st10" x1="314.668" y1="195.338" x2="188.055" y2="243.237"/>
			<line class="st10" x1="303.434" y1="221.382" x2="188.055" y2="265.2"/>
			<line class="st10" x1="291.148" y1="247.723" x2="188.055" y2="287.164"/>
			<line class="st10" x1="280.063" y1="273.686" x2="188.055" y2="309.128"/>
			<line class="st10" x1="268.784" y1="300.209" x2="188.055" y2="331.091"/>
			<line class="st10" x1="257.479" y1="326.104" x2="188.055" y2="353.055"/>
			<line class="st12" x1="245.964" y1="352.213" x2="188.055" y2="375.018"/>
			<polyline class="st10" points="337.246,165.454 307.715,176.27 314.668,195.338 296.595,202.175 303.434,221.382 284.22,228.743 
				291.148,247.723 272.652,254.8 280.063,273.686 261.072,281.002 268.784,300.209 250.731,307.08 257.479,326.104 
				238.965,333.291 245.964,352.213 227.966,359.273 239.111,387.686 			"/>
			<polygon class="st9" points="225.689,364.771 192.888,377.24 192.888,383.329 232.801,383.329 			"/>
			<polygon class="st13" points="238.841,513.341 188.058,558.886 188.058,456.952 			"/>
			<g>
				<polygon class="st9" points="189.915,456.854 237.395,391.451 237.395,509.575 				"/>
				<path class="st13" d="M235.949,395.904v109.905l-44.176-49.053L235.949,395.904 M238.841,386.998l-50.784,69.953l50.784,56.389
					V386.998L238.841,386.998z"/>
			</g>
			<polygon class="st13" points="228.419,422.292 228.419,501.769 217.009,489.099 217.009,436.742 			"/>
			<line class="st10" x1="207.752" y1="445.144" x2="207.752" y2="478.399"/>
			<polygon class="st13" points="196.975,452.388 196.975,466.853 188.058,456.952 			"/>
			<line class="st14" x1="188.058" y1="456.952" x2="213.583" y2="534.065"/>
			<polygon class="st15" points="230.337,513.341 198.964,476.22 217.528,524.185 			"/>
			<polygon class="st15" points="192.752,484.349 207.138,533.505 193.754,545.594 			"/>
			<path class="st10" d="M277.517,397.989c0,0-16.304,35.106-38.406,41.612"/>
			<path class="st9" d="M246.666,150.863c10.299-0.253,19.726-2.635,27.869-5.859l-4.021,22.726L246.666,150.863z"/>
			<path class="st9" d="M284.018,140.644c7.748-4.075,13.692-8.459,17.279-11.395l3.328,22.875L284.018,140.644z"/>
			<path class="st9" d="M191.133,154.562l14.741-14.741c9.881,5.833,19.511,9.013,28.646,10.337l-8.597,33.852L191.133,154.562z"/>
			<polygon class="st2" points="329.311,154.763 314.563,160.178 310.494,132.208 			"/>
			<polygon class="st2" points="306.542,163.123 278.304,173.491 282.507,149.733 			"/>
			<polygon class="st2" points="268.649,177.036 233.355,189.995 241.518,157.846 			"/>
			<polygon class="st2" points="188.055,163.324 223.737,193.526 188.055,206.628 			"/>
			<polyline class="st16" points="306.013,127.291 310.494,160.178 279.34,143.738 273.594,173.921 239.338,151.052 
				227.966,191.392 187.469,157.846 			"/>
			<path class="st15" d="M188.055,387.686h51.056c0,0-0.94,46.614-51.053,69.266c0,0,0-71.539,0-69.266"/>
			<path class="st10" d="M194.575,445.144c0,0,31.809-11.085,37.111-52.052h-37.111v45.063c0,0,25.235-9.94,30.604-40.003h-24.821
				v28.918c0,0,16.651-11.085,16.651-24.098h-9.903v8.032"/>
			<path class="st14" d="M188.055,387.686h51.056c0,0-0.94,46.614-51.053,69.266c0,0,0-71.539,0-69.266"/>
			<path class="st10" d="M271.98,18.886c7.197,2.659,15.062,7.559,21.488,16.708c19.612,27.925,3.358,58.312,3.358,58.312
				c-11.7,21.402-34.417,35.919-60.527,35.919c-3.367,0-10.561-0.558-18.969-3.643c-2.71-0.995-11.358-6.786-14.111-8.882
				l-13.037,17.011"/>
			<polygon class="st13" points="178.696,452.388 178.696,466.853 187.613,456.952 			"/>
		</g>
	</g>
	<g>
		<path class="st9" d="M156.084,321.596c-0.551,0-0.997-0.446-0.997-0.997v-77.27c0-0.551,0.446-0.997,0.997-0.997h31.313
			c7.435,0,13.27,0.552,17.343,1.642c4.218,1.127,7.269,2.979,9.068,5.504c1.781,2.506,2.685,6.005,2.685,10.401v9.525
			c0,2.386-0.946,4.652-2.813,6.737c-1.262,1.406-2.689,2.519-4.266,3.323c2.31,0.647,4.472,1.874,6.453,3.666
			c2.706,2.448,4.078,5.241,4.078,8.3v11.906c0,6.643-2.703,11.426-8.035,14.219c-5.121,2.682-13.088,4.042-23.679,4.042H156.084z
			 M187.872,306.386c4.337,0,7.422-0.48,9.17-1.427c1.571-0.851,2.335-2.199,2.335-4.124v-6.191c0-2.529-0.617-4.312-1.834-5.297
			c-1.279-1.038-3.692-1.563-7.17-1.563h-14.719v18.603H187.872z M187.397,273.763c2.815,0,4.913-0.223,6.232-0.663
			c1.172-0.391,1.936-0.982,2.334-1.809c0.448-0.931,0.676-2.368,0.676-4.27v-3.81c0-1.656-0.202-2.882-0.602-3.646
			c-0.34-0.651-1.111-1.144-2.294-1.464c-1.379-0.372-3.635-0.561-6.704-0.561h-11.386v16.222H187.397z"/>
		<path class="st13" d="M187.396,243.328c7.382,0,13.076,0.536,17.086,1.608c4.007,1.071,6.845,2.779,8.513,5.119
			c1.667,2.343,2.5,5.616,2.5,9.823v9.525c0,2.143-0.854,4.167-2.56,6.072c-1.708,1.905-3.711,3.215-6.013,3.929v0.595
			c3.015,0.318,5.774,1.608,8.274,3.87s3.751,4.783,3.751,7.56v11.907c0,6.271-2.5,10.715-7.501,13.335
			c-5,2.619-12.74,3.929-23.216,3.929h-32.147v-77.271H187.396 M174.657,274.76h12.74c2.936,0,5.12-0.238,6.548-0.715
			c1.429-0.476,2.4-1.25,2.917-2.322c0.516-1.071,0.774-2.638,0.774-4.703v-3.81c0-1.824-0.238-3.194-0.715-4.107
			c-0.476-0.912-1.449-1.567-2.917-1.965c-1.469-0.396-3.791-0.595-6.965-0.595h-12.383V274.76 M174.657,307.383h13.216
			c4.525,0,7.74-0.515,9.644-1.547c1.905-1.031,2.858-2.698,2.858-5.001v-6.191c0-2.857-0.735-4.882-2.203-6.072
			c-1.469-1.191-4.068-1.786-7.798-1.786h-15.716V307.383 M187.396,241.334h-31.313c-1.102,0-1.994,0.893-1.994,1.994v77.271
			c0,1.102,0.893,1.994,1.994,1.994h32.147c10.905,0,18.802-1.359,24.142-4.156c5.687-2.979,8.57-8.06,8.57-15.102v-11.907
			c0-3.352-1.483-6.394-4.407-9.039c-1.507-1.363-3.117-2.419-4.816-3.161c0.966-0.685,1.868-1.494,2.701-2.423
			c2.037-2.275,3.069-4.765,3.069-7.404v-9.525c0-4.608-0.966-8.302-2.87-10.979c-1.938-2.719-5.175-4.7-9.623-5.89
			C200.781,241.882,195.024,241.334,187.396,241.334L187.396,241.334z M176.651,258.538h10.388c3.713,0,5.555,0.286,6.445,0.527
			c0.875,0.237,1.468,0.579,1.668,0.962c0.182,0.349,0.488,1.227,0.488,3.184v3.81c0,2.181-0.314,3.291-0.577,3.838
			c-0.101,0.209-0.408,0.847-1.75,1.294c-0.838,0.279-2.545,0.612-5.918,0.612h-10.745V258.538L176.651,258.538z M176.651,288.78
			h13.722c4.04,0,5.788,0.729,6.543,1.341c0.971,0.788,1.464,2.309,1.464,4.523v6.191c0,1.567-0.559,2.568-1.813,3.247
			c-1.101,0.597-3.502,1.307-8.695,1.307h-11.221V288.78L176.651,288.78z"/>
	</g>
</g>
</svg>
