<?xml version="1.0" encoding="utf-8"?>
<!-- Generator: Adobe Illustrator 22.0.1, SVG Export Plug-In . SVG Version: 6.00 Build 0)  -->
<svg version="1.1" id="Capa_1" xmlns="http://www.w3.org/2000/svg" xmlns:xlink="http://www.w3.org/1999/xlink" x="0px" y="0px"
	 viewBox="0 0 259.381 259.381" style="enable-background:new 0 0 259.381 259.381;" xml:space="preserve">
<style type="text/css">
	.st0{fill:#DCDCDC;}
</style>
<g>
	
		<rect x="12.797" y="12.797" transform="matrix(0.7071 -0.7071 0.7071 0.7071 -18.0972 43.6906)" class="st0" width="61.787" height="61.787"/>
	
		<rect x="98.796" y="12.798" transform="matrix(0.7071 -0.7071 0.7071 0.7071 7.091 104.5015)" class="st0" width="61.787" height="61.787"/>
	
		<rect x="184.796" y="12.798" transform="matrix(0.7071 -0.7071 0.7071 0.7071 32.2792 165.3125)" class="st0" width="61.787" height="61.787"/>
	
		<rect x="12.796" y="184.796" transform="matrix(0.7071 -0.7071 0.7071 0.7071 -139.7191 94.067)" class="st0" width="61.787" height="61.787"/>
	
		<rect x="98.795" y="184.796" transform="matrix(0.7071 -0.7071 0.7071 0.7071 -114.5309 154.878)" class="st0" width="61.787" height="61.787"/>
	
		<rect x="184.794" y="184.797" transform="matrix(0.7071 -0.7071 0.7071 0.7071 -89.3427 215.6889)" class="st0" width="61.787" height="61.787"/>
	
		<rect x="12.796" y="98.796" transform="matrix(0.7071 -0.7071 0.7071 0.7071 -78.9082 68.8788)" class="st0" width="61.787" height="61.787"/>
	
		<rect x="184.795" y="98.798" transform="matrix(0.7071 -0.7071 0.7071 0.7071 -28.5317 190.5007)" class="st0" width="61.787" height="61.787"/>
</g>
</svg>
