<?xml version="1.0" encoding="utf-8"?>
<!-- Generator: Adobe Illustrator 22.0.1, SVG Export Plug-In . SVG Version: 6.00 Build 0)  -->
<svg version="1.1" id="Capa_1" xmlns="http://www.w3.org/2000/svg" xmlns:xlink="http://www.w3.org/1999/xlink" x="0px" y="0px"
	 viewBox="0 0 259.381 259.381" style="enable-background:new 0 0 259.381 259.381;" xml:space="preserve">
<style type="text/css">
	.st0{fill:#00A0BE;}
</style>
<g>
	
		<rect x="12.797" y="12.797" transform="matrix(0.7071 -0.7071 0.7071 0.7071 -18.0972 43.6906)" class="st0" width="61.788" height="61.788"/>
	
		<rect x="98.797" y="12.797" transform="matrix(0.7071 -0.7071 0.7071 0.7071 7.0916 104.5018)" class="st0" width="61.788" height="61.788"/>
	
		<rect x="184.797" y="12.797" transform="matrix(0.7071 -0.7071 0.7071 0.7071 32.2804 165.313)" class="st0" width="61.788" height="61.788"/>
	
		<rect x="12.797" y="184.797" transform="matrix(0.7071 -0.7071 0.7071 0.7071 -139.7196 94.0682)" class="st0" width="61.788" height="61.788"/>
	
		<rect x="98.797" y="184.797" transform="matrix(0.7071 -0.7071 0.7071 0.7071 -114.5308 154.8794)" class="st0" width="61.788" height="61.788"/>
	
		<rect x="184.797" y="184.797" transform="matrix(0.7071 -0.7071 0.7071 0.7071 -89.342 215.6906)" class="st0" width="61.788" height="61.788"/>
	
		<rect x="12.797" y="98.797" transform="matrix(0.7071 -0.7071 0.7071 0.7071 -78.9084 68.8794)" class="st0" width="61.788" height="61.788"/>
	
		<rect x="184.797" y="98.797" transform="matrix(0.7071 -0.7071 0.7071 0.7071 -28.5308 190.5018)" class="st0" width="61.788" height="61.788"/>
</g>
</svg>
