<?xml version="1.0" encoding="utf-8"?>
<!-- Generator: Adobe Illustrator 22.0.1, SVG Export Plug-In . SVG Version: 6.00 Build 0)  -->
<svg version="1.1" id="Capa_1" xmlns="http://www.w3.org/2000/svg" xmlns:xlink="http://www.w3.org/1999/xlink" x="0px" y="0px"
	 viewBox="0 0 258.873 149.181" style="enable-background:new 0 0 258.873 149.181;" xml:space="preserve">
<style type="text/css">
	.st0{fill:#00A0BE;}
	.st1{fill:#FFFFFF;}
	.st2{fill:none;stroke:#00A0BE;stroke-width:2.6522;stroke-miterlimit:10;}
	.st3{fill:#002832;}
</style>
<polygon class="st0" points="233.718,0 233.718,43.918 197.513,73.833 161.308,43.918 161.308,0 "/>
<g>
	<g>
		<g>
			<path class="st0" d="M17.493,127.593c-0.636-0.22-1.094-0.61-1.373-1.169c-0.28-0.56-0.419-1.365-0.419-2.416
				c0-0.932,0.131-1.656,0.394-2.174c0.262-0.517,0.712-0.886,1.347-1.106s1.538-0.331,2.708-0.331h3.688v-1.958
				c0-0.458-0.089-0.809-0.267-1.055c-0.178-0.246-0.475-0.419-0.89-0.522c-0.416-0.102-1.022-0.152-1.818-0.152
				c-1.272,0-2.679,0.102-4.222,0.305v-1.678c1.678-0.153,3.196-0.229,4.552-0.229c1.424,0,2.475,0.107,3.153,0.318
				c0.678,0.212,1.144,0.581,1.399,1.106s0.382,1.339,0.382,2.441v8.696h-2.213V126.5c-0.187,0.95-1.424,1.424-3.712,1.424
				C19.031,127.923,18.128,127.813,17.493,127.593z M20.582,126.423c0.831,0,1.534-0.059,2.11-0.178
				c0.763-0.153,1.145-0.509,1.145-1.068v-3.357h-3.535c-0.729,0-1.254,0.055-1.577,0.166c-0.322,0.11-0.534,0.318-0.636,0.623
				c-0.102,0.306-0.153,0.797-0.153,1.475c0,0.61,0.059,1.081,0.178,1.412c0.118,0.33,0.331,0.568,0.636,0.712
				c0.306,0.144,0.763,0.216,1.373,0.216H20.582z"/>
			<path class="st0" d="M30.092,115.362h2.161v2.009c0-0.39,0.169-0.758,0.509-1.106c0.339-0.347,0.772-0.627,1.297-0.839
				c0.525-0.212,1.043-0.318,1.551-0.318h1.119v1.958h-1.272c-1.085,0-1.869,0.14-2.352,0.419c-0.483,0.28-0.725,0.785-0.725,1.513
				v8.671h-2.288V115.362z"/>
			<path class="st0" d="M41.712,127.58c-0.593-0.228-1.021-0.618-1.284-1.169c-0.263-0.55-0.394-1.326-0.394-2.327v-7.222h-2.746
				v-1.5h2.746v-3.814h2.314v3.814h4.399v1.5h-4.399v7.349c0,0.61,0.072,1.069,0.216,1.373c0.143,0.306,0.398,0.522,0.762,0.648
				c0.365,0.128,0.894,0.191,1.589,0.191c0.22,0,0.831-0.068,1.831-0.204v1.501c-0.865,0.135-1.721,0.203-2.568,0.203
				C43.128,127.923,42.306,127.809,41.712,127.58z"/>
			<path class="st0" d="M48.781,124.16v-4.857c0-1.492,0.428-2.564,1.285-3.216c0.855-0.652,2.242-0.979,4.157-0.979
				c1.814,0,3.123,0.314,3.928,0.941c0.805,0.628,1.208,1.713,1.208,3.255v2.721h-8.264v1.857c0,0.847,0.296,1.458,0.89,1.831
				c0.593,0.373,1.509,0.559,2.746,0.559c1.17,0,2.551-0.203,4.145-0.61v1.754c-1.56,0.339-3.043,0.509-4.45,0.509
				C50.663,127.923,48.781,126.669,48.781,124.16z M57.071,120.523v-1.932c0-0.746-0.225-1.259-0.674-1.538
				c-0.45-0.28-1.216-0.419-2.301-0.419c-1.051,0-1.814,0.14-2.288,0.419c-0.475,0.28-0.712,0.793-0.712,1.538v1.932H57.071z"/>
			<path class="st0" d="M62.385,127.618v-1.754c1.984,0.323,3.407,0.483,4.272,0.483c1.085,0,1.865-0.106,2.34-0.318
				c0.474-0.212,0.712-0.606,0.712-1.182V123.6c0-0.525-0.178-0.898-0.534-1.118c-0.356-0.22-0.932-0.331-1.729-0.331h-1.399
				c-1.271,0-2.242-0.263-2.911-0.788c-0.67-0.525-1.004-1.263-1.004-2.212v-1.144c0-1.933,1.83-2.899,5.492-2.899
				c0.271,0,1.517,0.068,3.738,0.204v1.653c-1.509-0.238-2.788-0.356-3.84-0.356c-1.204,0-2.026,0.118-2.466,0.356
				c-0.441,0.237-0.661,0.636-0.661,1.195v1.043c0,0.831,0.754,1.246,2.263,1.246h1.424c2.593,0,3.89,0.966,3.89,2.899v1.068
				c0,1.271-0.441,2.174-1.322,2.708c-0.882,0.534-2.229,0.801-4.043,0.801C65.301,127.923,63.894,127.822,62.385,127.618z"/>
			<path class="st0" d="M76.205,127.593c-0.636-0.22-1.094-0.61-1.373-1.169c-0.28-0.56-0.419-1.365-0.419-2.416
				c0-0.932,0.131-1.656,0.394-2.174c0.262-0.517,0.712-0.886,1.347-1.106s1.538-0.331,2.708-0.331h3.688v-1.958
				c0-0.458-0.089-0.809-0.267-1.055c-0.178-0.246-0.475-0.419-0.89-0.522c-0.416-0.102-1.022-0.152-1.818-0.152
				c-1.272,0-2.679,0.102-4.222,0.305v-1.678c1.678-0.153,3.196-0.229,4.552-0.229c1.424,0,2.475,0.107,3.153,0.318
				c0.678,0.212,1.144,0.581,1.399,1.106c0.254,0.525,0.382,1.339,0.382,2.441v8.696h-2.213V126.5
				c-0.187,0.95-1.424,1.424-3.712,1.424C77.744,127.923,76.841,127.813,76.205,127.593z M79.294,126.423
				c0.831,0,1.534-0.059,2.11-0.178c0.763-0.153,1.145-0.509,1.145-1.068v-3.357h-3.535c-0.729,0-1.254,0.055-1.577,0.166
				c-0.322,0.11-0.534,0.318-0.636,0.623c-0.102,0.306-0.153,0.797-0.153,1.475c0,0.61,0.059,1.081,0.178,1.412
				c0.118,0.33,0.331,0.568,0.636,0.712c0.306,0.144,0.763,0.216,1.373,0.216H79.294z"/>
			<path class="st0" d="M88.804,115.362h2.288v1.5c0.237-1.169,1.584-1.754,4.043-1.754c1.577,0,2.683,0.285,3.319,0.852
				c0.636,0.568,0.953,1.462,0.953,2.683v9.027h-2.288v-8.9c0-0.321-0.026-0.584-0.076-0.788c-0.051-0.203-0.153-0.406-0.306-0.61
				c-0.339-0.424-1.093-0.636-2.262-0.636c-0.899,0-1.589,0.063-2.073,0.191c-0.483,0.127-0.822,0.335-1.017,0.623
				c-0.195,0.289-0.293,0.695-0.293,1.221v8.9h-2.288V115.362z"/>
			<path class="st0" d="M106.146,127.809c-0.543-0.076-1.085-0.241-1.627-0.496c-0.56-0.254-0.966-0.665-1.221-1.234
				c-0.254-0.568-0.382-1.334-0.382-2.301v-4.272c0-0.763,0.093-1.432,0.28-2.009c0.186-0.576,0.432-1.026,0.737-1.348
				c0.254-0.287,0.64-0.512,1.157-0.674c0.517-0.161,1.046-0.267,1.589-0.318c0.61-0.034,1.247-0.051,1.907-0.051
				c0.881,0,1.547,0.022,1.997,0.064c0.449,0.043,0.928,0.131,1.437,0.267c0.525,0.153,0.932,0.382,1.22,0.687
				c0.288,0.305,0.535,0.746,0.738,1.322c0.187,0.594,0.28,1.28,0.28,2.06v4.272c0,1.441-0.331,2.492-0.991,3.153
				c-0.272,0.271-0.661,0.483-1.17,0.636c-0.508,0.153-1.034,0.254-1.577,0.305c-0.644,0.034-1.288,0.051-1.932,0.051
				C107.502,127.923,106.689,127.885,106.146,127.809z M110.139,126.372c0.322-0.034,0.636-0.127,0.941-0.28
				c0.305-0.135,0.521-0.36,0.648-0.674c0.127-0.313,0.19-0.75,0.19-1.31v-4.984c0-0.762-0.093-1.318-0.28-1.665
				c-0.187-0.347-0.504-0.576-0.953-0.687c-0.45-0.11-1.149-0.165-2.098-0.165c-0.95,0-1.649,0.055-2.097,0.165
				c-0.45,0.11-0.767,0.339-0.954,0.687c-0.187,0.347-0.28,0.903-0.28,1.665v4.984c0,0.56,0.063,0.996,0.191,1.31
				c0.127,0.313,0.343,0.538,0.648,0.674c0.305,0.153,0.618,0.246,0.941,0.28c0.321,0.035,0.839,0.051,1.551,0.051
				S109.817,126.407,110.139,126.372z"/>
			<path class="st0" d="M117.36,127.618v-1.754c1.984,0.323,3.407,0.483,4.272,0.483c1.085,0,1.865-0.106,2.34-0.318
				c0.474-0.212,0.712-0.606,0.712-1.182V123.6c0-0.525-0.178-0.898-0.534-1.118s-0.932-0.331-1.729-0.331h-1.399
				c-1.271,0-2.242-0.263-2.911-0.788c-0.67-0.525-1.004-1.263-1.004-2.212v-1.144c0-1.933,1.83-2.899,5.492-2.899
				c0.271,0,1.517,0.068,3.738,0.204v1.653c-1.509-0.238-2.788-0.356-3.84-0.356c-1.204,0-2.026,0.118-2.466,0.356
				c-0.441,0.237-0.661,0.636-0.661,1.195v1.043c0,0.831,0.754,1.246,2.263,1.246h1.424c2.593,0,3.89,0.966,3.89,2.899v1.068
				c0,1.271-0.441,2.174-1.322,2.708c-0.882,0.534-2.229,0.801-4.043,0.801C120.276,127.923,118.869,127.822,117.36,127.618z"/>
			<path class="st1" d="M131.243,127.606c-0.695-0.212-1.179-0.615-1.45-1.208c-0.271-0.593-0.406-1.517-0.406-2.771v-4.806
				c0-1.356,0.385-2.314,1.156-2.873c0.772-0.559,2.022-0.839,3.751-0.839c0.813,0,1.453,0.047,1.919,0.14
				c0.466,0.094,0.843,0.254,1.132,0.483c0.287,0.229,0.584,0.563,0.89,1.004v-6.866h3.712v17.8h-3.585v-1.399
				c-0.305,0.492-0.581,0.835-0.826,1.03c-0.246,0.195-0.589,0.344-1.03,0.445c-0.458,0.118-1.136,0.178-2.034,0.178
				C133.014,127.923,131.938,127.817,131.243,127.606z M137.244,125.482c0.39-0.084,0.653-0.241,0.788-0.471
				c0.135-0.228,0.204-0.572,0.204-1.03v-4.959c0-0.424-0.073-0.75-0.216-0.979c-0.144-0.228-0.398-0.394-0.763-0.496
				s-0.911-0.152-1.64-0.152c-0.78,0-1.339,0.047-1.678,0.14c-0.339,0.093-0.564,0.254-0.674,0.483
				c-0.11,0.229-0.165,0.607-0.165,1.132v4.704c0,0.475,0.055,0.835,0.165,1.081c0.11,0.246,0.326,0.42,0.648,0.522
				c0.322,0.102,0.822,0.152,1.5,0.152C136.243,125.609,136.854,125.567,137.244,125.482z"/>
			<path class="st1" d="M145.304,110.912h3.712v3.001h-3.712V110.912z M145.304,115.362h3.712v12.307h-3.712V115.362z"/>
			<path class="st1" d="M152.907,133.085v-2.492c1.593,0.22,3.077,0.331,4.45,0.331c1.254,0,2.152-0.203,2.695-0.61
				c0.543-0.406,0.814-1.085,0.814-2.034v-1.984c-0.306,0.441-0.602,0.776-0.89,1.004c-0.289,0.229-0.666,0.39-1.132,0.483
				c-0.466,0.093-1.106,0.14-1.919,0.14c-1.204,0-2.162-0.115-2.873-0.344c-0.712-0.228-1.229-0.61-1.551-1.144
				c-0.322-0.534-0.483-1.275-0.483-2.225v-4.805c0-1.136,0.148-2.009,0.445-2.619c0.296-0.61,0.805-1.043,1.526-1.297
				c0.72-0.254,1.758-0.382,3.115-0.382c0.881,0,1.559,0.051,2.034,0.153c0.458,0.102,0.805,0.254,1.043,0.458
				c0.237,0.204,0.509,0.551,0.813,1.043v-1.399h3.585v12.969c0,1.745-0.597,3.004-1.793,3.776
				c-1.195,0.772-3.005,1.157-5.428,1.157C155.356,133.263,153.873,133.203,152.907,133.085z M159.887,125.457
				c0.365-0.102,0.619-0.267,0.763-0.496c0.143-0.229,0.216-0.556,0.216-0.979v-4.959c0-0.458-0.068-0.801-0.204-1.03
				c-0.135-0.229-0.398-0.385-0.788-0.471c-0.39-0.084-1-0.127-1.831-0.127c-0.678,0-1.178,0.05-1.5,0.152s-0.538,0.276-0.648,0.522
				c-0.11,0.246-0.165,0.606-0.165,1.081v4.704c0,0.526,0.055,0.903,0.165,1.132c0.11,0.228,0.335,0.39,0.674,0.483
				c0.339,0.094,0.898,0.14,1.678,0.14C158.975,125.609,159.522,125.559,159.887,125.457z"/>
			<path class="st1" d="M167.935,110.912h3.712v3.001h-3.712V110.912z M167.935,115.362h3.712v12.307h-3.712V115.362z"/>
			<path class="st1" d="M179.58,127.847c-0.424-0.051-0.848-0.153-1.272-0.305c-0.475-0.153-0.86-0.365-1.156-0.636
				c-0.297-0.271-0.538-0.644-0.725-1.119c-0.203-0.491-0.305-1.059-0.305-1.703v-6.434h-2.492v-2.288h2.492v-3.559h3.713v3.559
				h3.382v2.288h-3.382v5.798c0,0.594,0.05,1.038,0.153,1.335c0.102,0.296,0.296,0.508,0.584,0.636
				c0.288,0.127,0.729,0.19,1.322,0.19c0.238,0,0.678-0.042,1.323-0.127v2.314c-0.798,0.085-1.484,0.128-2.06,0.128
				C180.529,127.923,180.004,127.898,179.58,127.847z"/>
			<path class="st1" d="M186.255,127.606c-0.568-0.212-0.966-0.593-1.195-1.144c-0.229-0.551-0.344-1.378-0.344-2.479
				c0-0.983,0.123-1.754,0.369-2.314c0.246-0.559,0.644-0.962,1.195-1.208c0.55-0.246,1.309-0.369,2.275-0.369h4.17v-0.839
				c0-0.525-0.072-0.916-0.216-1.17s-0.407-0.432-0.788-0.534c-0.381-0.102-0.953-0.152-1.716-0.152
				c-1.051,0-2.492,0.102-4.323,0.305v-2.34c1.339-0.169,2.907-0.254,4.704-0.254c1.577,0,2.793,0.119,3.649,0.356
				c0.856,0.238,1.471,0.645,1.844,1.221c0.373,0.577,0.559,1.416,0.559,2.518v8.468h-3.636v-1.119
				c-0.289,0.492-0.678,0.839-1.17,1.043c-0.491,0.22-1.424,0.331-2.797,0.331C187.683,127.923,186.823,127.817,186.255,127.606z
				 M191.887,125.533c0.238-0.034,0.403-0.085,0.496-0.153c0.094-0.068,0.174-0.178,0.242-0.331
				c0.068-0.118,0.102-0.296,0.102-0.534v-2.39h-2.543c-0.576,0-0.984,0.038-1.221,0.114c-0.238,0.076-0.398,0.229-0.483,0.458
				c-0.085,0.228-0.127,0.631-0.127,1.208c0,0.559,0.042,0.95,0.127,1.169c0.085,0.22,0.25,0.365,0.496,0.432
				c0.245,0.068,0.682,0.102,1.309,0.102C191.031,125.609,191.565,125.584,191.887,125.533z"/>
			<path class="st1" d="M199.796,109.869h3.712v17.8h-3.712V109.869z"/>
			<path class="st1" d="M206.509,123.931v-4.424c0-1.543,0.496-2.662,1.487-3.357c0.991-0.695,2.521-1.043,4.59-1.043
				c1.949,0,3.378,0.335,4.285,1.004c0.906,0.67,1.36,1.801,1.36,3.395v3h-7.985v1.119c0,0.712,0.254,1.221,0.763,1.525
				c0.509,0.306,1.424,0.458,2.746,0.458c1.221,0,2.594-0.178,4.12-0.534v2.365c-1.51,0.322-3.12,0.483-4.832,0.483
				C208.686,127.923,206.509,126.592,206.509,123.931z M214.696,120.397v-1.78c0-0.406-0.165-0.712-0.496-0.915
				c-0.331-0.203-0.886-0.305-1.666-0.305c-0.898,0-1.5,0.102-1.805,0.305c-0.322,0.22-0.483,0.526-0.483,0.915v1.78H214.696z"/>
			<path class="st1" d="M220.824,127.542v-2.467c2.356,0.356,3.992,0.534,4.908,0.534c0.78,0,1.356-0.076,1.729-0.228
				c0.373-0.153,0.559-0.432,0.559-0.839v-0.762c0-0.424-0.119-0.725-0.356-0.903c-0.238-0.178-0.704-0.267-1.399-0.267h-1.602
				c-1.306,0-2.314-0.258-3.026-0.775s-1.068-1.275-1.068-2.276v-1.5c0-1.068,0.509-1.827,1.525-2.275
				c1.017-0.45,2.551-0.674,4.603-0.674c0.813,0,2.271,0.076,4.374,0.229v2.365c-2.644-0.203-4.137-0.305-4.475-0.305
				c-1.001,0-1.653,0.068-1.958,0.203c-0.271,0.153-0.406,0.432-0.406,0.839v0.661c0,0.22,0.11,0.411,0.33,0.572
				c0.22,0.161,0.543,0.241,0.966,0.241h1.628c3.018,0,4.526,0.984,4.526,2.95v1.551c0,0.594-0.11,1.11-0.331,1.551
				c-0.22,0.441-0.509,0.788-0.865,1.042c-0.339,0.238-0.775,0.424-1.309,0.56c-0.534,0.135-1.089,0.228-1.666,0.28
				c-0.525,0.051-1.136,0.076-1.831,0.076C224.359,127.923,222.74,127.796,220.824,127.542z"/>
		</g>
	</g>
	<path class="st1" d="M10.286,56.134h17.919c4.224,0,7.483,0.307,9.777,0.92c2.293,0.613,3.917,1.59,4.872,2.929
		c0.954,1.341,1.431,3.214,1.431,5.621v5.451c0,1.226-0.489,2.385-1.465,3.475c-0.977,1.09-2.124,1.84-3.441,2.248v0.341
		c1.725,0.182,3.304,0.92,4.735,2.215c1.431,1.294,2.146,2.737,2.146,4.326v6.814c0,3.589-1.431,6.132-4.293,7.631
		c-2.861,1.499-7.29,2.248-13.286,2.248H10.286V56.134z M28.205,74.122c1.68,0,2.93-0.136,3.747-0.409
		c0.818-0.272,1.374-0.715,1.669-1.329c0.295-0.613,0.443-1.51,0.443-2.691v-2.18c0-1.044-0.136-1.828-0.409-2.351
		c-0.272-0.522-0.829-0.897-1.669-1.124c-0.841-0.227-2.169-0.341-3.986-0.341h-7.086v10.425H28.205z M28.478,92.79
		c2.589,0,4.429-0.295,5.519-0.886c1.09-0.59,1.636-1.544,1.636-2.862V85.5c0-1.635-0.42-2.794-1.261-3.475
		c-0.841-0.681-2.328-1.022-4.463-1.022h-8.994V92.79H28.478z"/>
	<path class="st0" d="M101.175,56.134h10.629v17.715h18.805V56.134h10.629v44.219h-10.629V81.412h-18.805v18.941h-10.629V56.134z"/>
	<path class="st1" d="M81.145,56.134V85c0,0.143-0.027,0.258-0.033,0.395c-0.008,0.106-0.015,0.213-0.027,0.319
		c-0.047,0.53-0.142,1.012-0.292,1.438c-0.022,0.075-0.045,0.15-0.069,0.225c-0.025,0.06-0.041,0.129-0.068,0.187
		c-1.169,3.329-4.332,5.72-8.061,5.72c-3.958,0-7.279-2.693-8.253-6.344c-0.113-0.362-0.191-0.759-0.232-1.191
		c-0.015-0.127-0.024-0.256-0.034-0.385c-0.006-0.126-0.032-0.231-0.032-0.362V56.134H53.415v32.091
		c0,8.54,6.381,12.809,19.145,12.809c12.809,0,19.214-4.269,19.214-12.809V56.134H81.145z"/>
	<circle class="st0" cx="72.594" cy="81.508" r="4.939"/>
	<line class="st2" x1="204.92" y1="136" x2="195.629" y2="136"/>
	<line class="st2" x1="210.597" y1="136" x2="207.709" y2="136"/>
	<line class="st2" x1="215.832" y1="136" x2="212.944" y2="136"/>
	<line class="st2" x1="218.871" y1="136" x2="231.111" y2="136"/>
	<line class="st2" x1="190.87" y1="136" x2="200.387" y2="136"/>
	<line class="st2" x1="185.193" y1="136" x2="188.081" y2="136"/>
	<line class="st2" x1="179.958" y1="136" x2="182.846" y2="136"/>
	<line class="st2" x1="164.679" y1="136" x2="176.919" y2="136"/>
	<path class="st3" d="M197.536,130.222"/>
	<path class="st0" d="M173.686,94.403c-11.828,0-21.45-9.622-21.45-21.45c0-6.814,3.204-12.883,8.173-16.815l-0.006-0.004v-2.845
		c-3.14,1.16-6.571,3.298-9.374,7.289c-8.556,12.182-1.465,25.439-1.465,25.439c5.104,9.336,15.014,15.67,26.405,15.67
		c1.469,0,4.607-0.243,8.275-1.589c1.182-0.434,4.955-2.96,6.156-3.875l5.687,7.421V79.066l-1.588-1.021
		C192.204,87.418,183.756,94.403,173.686,94.403z"/>
	<g>
		<path class="st1" d="M187.125,73.306l0.267,0.172c-0.385,7.083-6.233,12.712-13.412,12.712c-7.428,0-13.449-6.021-13.449-13.449
			c0-5.168,2.919-9.649,7.195-11.901l-2.09-1.343c-4.574,2.743-7.646,7.734-7.646,13.456c0,8.668,7.027,15.696,15.696,15.696
			c8.08,0,14.728-6.108,15.594-13.957L187.125,73.306z"/>
	</g>
	<circle class="st1" cx="177.228" cy="71.173" r="2.342"/>
	<path class="st0" d="M221.707,94.403c11.828,0,21.45-9.622,21.45-21.45c0-6.814-3.204-12.883-8.173-16.815l0.006-0.004v-2.845
		c3.14,1.16,6.571,3.298,9.374,7.289c8.556,12.182,1.465,25.439,1.465,25.439c-5.104,9.336-15.014,15.67-26.405,15.67
		c-1.469,0-4.607-0.243-8.275-1.589c-1.182-0.434-4.955-2.96-6.156-3.875l-5.687,7.421V79.066l1.588-1.021
		C203.188,87.418,211.637,94.403,221.707,94.403z"/>
	<g>
		<path class="st1" d="M229.757,59.497l-2.091,1.343c4.276,2.252,7.195,6.733,7.195,11.901c0,7.428-6.021,13.449-13.449,13.449
			c-7.179,0-13.027-5.629-13.412-12.712l-1.888,1.213c0.866,7.849,7.514,13.957,15.594,13.957c8.668,0,15.696-7.027,15.696-15.696
			C237.403,67.231,234.331,62.24,229.757,59.497z"/>
	</g>
	<circle class="st1" cx="218.165" cy="71.173" r="2.342"/>
</g>
</svg>
